<svg width="360" height="786" viewBox="0 0 360 786" fill="none" xmlns="http://www.w3.org/2000/svg">
<path d="M622.399 -80.0033C622.399 -80.0033 393.307 247.436 316.93 356.237C241.635 463.524 311.607 542.908 357.76 545.35" stroke="#00CB62" stroke-width="0.82" stroke-miterlimit="10"/>
<path d="M614.444 -81.2633C614.444 -81.2633 388.338 241.864 313.31 348.769C236.241 458.574 311.494 536.716 358.915 538.552" stroke="#00CB62" stroke-width="0.95" stroke-miterlimit="10"/>
<path d="M606.498 -82.5211C606.498 -82.5211 383.379 236.294 309.678 341.297C230.842 453.617 311.388 530.519 360.076 531.75" stroke="#00CB62" stroke-width="1.07" stroke-miterlimit="10"/>
<path d="M598.544 -83.7809C598.544 -83.7809 378.414 230.729 306.051 333.833C225.448 448.668 311.276 524.327 361.232 524.953" stroke="#00CB62" stroke-width="1.2" stroke-miterlimit="10"/>
<path d="M590.597 -85.0389C590.597 -85.0389 373.454 225.159 302.425 326.357C220.052 443.718 311.161 518.133 362.392 518.15" stroke="#00CB62" stroke-width="1.32" stroke-miterlimit="10"/>
<path d="M582.643 -86.2985C582.643 -86.2985 368.496 219.591 298.795 318.887C214.658 438.769 311.052 511.948 363.547 511.353" stroke="#00CB62" stroke-width="1.44" stroke-miterlimit="10"/>
<path d="M574.689 -87.5533C574.689 -87.5533 363.528 214.024 295.172 311.418C209.255 433.822 310.938 505.754 364.707 504.551" stroke="#00CB62" stroke-width="1.57" stroke-miterlimit="10"/>
<path d="M566.742 -88.8166C566.742 -88.8166 358.57 208.456 291.541 303.947C203.858 428.866 310.832 499.558 365.863 497.753" stroke="#00CB62" stroke-width="1.69" stroke-miterlimit="10"/>
<path d="M558.789 -90.071C558.789 -90.071 353.604 202.89 287.913 296.481C198.462 423.916 310.719 493.365 367.023 490.951" stroke="#00CB62" stroke-width="1.81" stroke-miterlimit="10"/>
<path d="M550.84 -91.3348C550.84 -91.3348 348.641 197.314 284.288 289.007C193.068 418.966 310.606 487.172 368.178 484.153" stroke="#00CB62" stroke-width="1.94" stroke-miterlimit="10"/>
<path d="M542.887 -92.5888C542.887 -92.5888 343.675 191.748 280.656 281.535C187.672 414.017 310.495 480.986 369.332 477.355" stroke="#00CB62" stroke-width="2.06" stroke-miterlimit="10"/>
<path d="M534.939 -93.8525C534.939 -93.8525 338.716 186.179 277.028 274.07C182.278 409.067 310.389 474.79 370.493 470.554" stroke="#00CB62" stroke-width="2.19" stroke-miterlimit="10"/>
<path d="M526.987 -95.1059C526.987 -95.1059 333.757 180.611 273.404 266.596C176.879 404.111 310.276 468.597 371.647 463.756" stroke="#00CB62" stroke-width="2.31" stroke-miterlimit="10"/>
<path d="M519.034 -96.3666C519.034 -96.3666 328.793 175.045 269.778 259.131C171.486 399.161 310.165 462.404 372.811 456.954" stroke="#00CB62" stroke-width="2.43" stroke-miterlimit="10"/>
<path d="M511.086 -97.6238C511.086 -97.6238 323.832 169.476 266.144 251.66C166.089 394.212 310.049 456.211 373.963 450.156" stroke="#00CB62" stroke-width="2.56" stroke-miterlimit="10"/>
<path d="M503.131 -98.884C503.131 -98.884 318.867 163.911 262.52 244.185C160.695 389.262 309.941 450.025 375.125 443.355" stroke="#00CB62" stroke-width="2.68" stroke-miterlimit="10"/>
<path d="M495.186 -100.142C495.186 -100.142 313.907 158.341 258.892 236.719C155.3 384.312 309.834 443.828 376.276 436.549" stroke="#00CB62" stroke-width="2.8" stroke-miterlimit="10"/>
<path d="M487.23 -101.402C487.23 -101.402 308.938 152.769 255.26 229.248C149.902 379.356 309.72 437.636 377.437 429.749" stroke="#00CB62" stroke-width="2.93" stroke-miterlimit="10"/>
<path d="M479.279 -102.657C479.279 -102.657 303.979 147.199 251.64 221.78C144.507 374.405 309.608 431.442 378.592 422.95" stroke="#00CB62" stroke-width="3.05" stroke-miterlimit="10"/>
<path d="M471.33 -103.92C471.33 -103.92 299.02 141.63 248.008 214.308C139.112 369.456 309.494 425.25 379.746 416.152" stroke="#00CB62" stroke-width="3.18" stroke-miterlimit="10"/>
<path d="M463.378 -105.174C463.378 -105.174 294.054 136.065 244.376 206.837C133.717 364.506 309.381 419.057 380.907 409.35" stroke="#00CB62" stroke-width="3.3" stroke-miterlimit="10"/>
<g filter="url(#filter0_f_2018_418)">
<ellipse cx="300" cy="374.5" rx="62" ry="160.5" transform="rotate(-180 300 374.5)" fill="#00CB62"/>
</g>
<defs>
<filter id="filter0_f_2018_418" x="-62" y="-86" width="724" height="921" filterUnits="userSpaceOnUse" color-interpolation-filters="sRGB">
<feFlood flood-opacity="0" result="BackgroundImageFix"/>
<feBlend mode="normal" in="SourceGraphic" in2="BackgroundImageFix" result="shape"/>
<feGaussianBlur stdDeviation="150" result="effect1_foregroundBlur_2018_418"/>
</filter>
</defs>
</svg>
