<svg width="22" height="22" viewBox="0 0 22 22" fill="none" xmlns="http://www.w3.org/2000/svg">
<path d="M5.34367 15.2426C4.95315 15.6331 4.95315 16.2663 5.34367 16.6568C5.7342 17.0473 6.36736 17.0473 6.75789 16.6568L6.05078 15.9497L5.34367 15.2426ZM16.9503 6.05021C16.9503 5.49793 16.5026 5.05021 15.9503 5.05021L6.95028 5.05021C6.39799 5.05021 5.95028 5.49793 5.95028 6.05021C5.95028 6.6025 6.39799 7.05021 6.95028 7.05021H14.9503V15.0502C14.9503 15.6025 15.398 16.0502 15.9503 16.0502C16.5026 16.0502 16.9503 15.6025 16.9503 15.0502L16.9503 6.05021ZM6.05078 15.9497L6.75789 16.6568L16.6574 6.75732L15.9503 6.05021L15.2432 5.3431L5.34367 15.2426L6.05078 15.9497Z" fill="#00CB62"/>
</svg>
