<svg width="130" height="52" viewBox="0 0 130 52" fill="none" xmlns="http://www.w3.org/2000/svg">
<g clip-path="url(#clip0_157_159)">
<path d="M26 51.8616C11.7591 51.8616 0.177246 40.2357 0.177246 25.9407C0.177246 11.6456 11.7591 0 26 0C40.2409 0 51.8227 11.6259 51.8227 25.9209C51.8227 40.216 40.2409 51.8616 26 51.8616ZM26 0.612927C12.2909 0.612927 1.7924 12.1795 1.7924 25.9407C1.7924 39.7019 12.2909 50.3589 26 50.3589C39.7091 50.3589 50.2076 39.6821 50.2076 25.9209C50.2076 12.1597 39.7091 0.612927 26 0.612927Z" fill="#00CB62"/>
<path d="M25.9999 49.4297C12.606 49.4297 1.69385 38.8913 1.69385 25.9209C1.69385 12.9506 12.606 2.43194 25.9999 2.43194C39.3938 2.43194 50.306 12.9703 50.306 25.9407C50.306 38.911 39.3938 49.4297 25.9999 49.4297ZM25.9999 3.04487C13.1378 3.04487 3.309 13.524 3.309 25.9407C3.309 38.3574 13.1378 47.9468 25.9999 47.9468C38.862 47.9468 48.6908 38.3574 48.6908 25.9407C48.6908 13.524 38.862 3.04487 25.9999 3.04487Z" fill="#00CB62"/>
<path d="M25.9999 47.0175C13.4333 47.0175 3.23022 37.5665 3.23022 25.9407C3.23022 14.3148 13.453 4.86388 25.9999 4.86388C38.5666 4.86388 48.7696 14.3148 48.7696 25.9407C48.7696 37.5468 38.5666 47.0175 25.9999 47.0175ZM25.9999 5.45703C13.9848 5.45703 4.84538 14.8487 4.84538 25.9209C4.84538 37.0129 13.9848 45.4951 25.9999 45.4951C38.0151 45.4951 47.1545 36.9932 47.1545 25.9209C47.1545 14.8487 38.0151 5.45703 25.9999 5.45703Z" fill="#00CB62"/>
<path d="M25.9999 44.5856C14.2802 44.5856 4.74683 36.2221 4.74683 25.9407C4.74683 15.6593 14.2802 7.27605 25.9999 7.27605C37.7196 7.27605 47.2529 15.6395 47.2529 25.9209C47.2529 36.2023 37.7196 44.5856 25.9999 44.5856ZM25.9999 7.88897C14.812 7.88897 6.36198 16.1932 6.36198 25.9407C6.36198 35.6882 14.812 43.1027 25.9999 43.1027C37.1877 43.1027 45.6377 35.6882 45.6377 25.9407C45.6377 16.1932 37.1877 7.88897 25.9999 7.88897Z" fill="#00CB62"/>
<path d="M25.9999 42.1536C15.1271 42.1536 6.2832 34.8776 6.2832 25.9209C6.2832 16.9643 15.1271 9.70798 25.9999 9.70798C36.8726 9.70798 45.7165 16.984 45.7165 25.9407C45.7165 34.8973 36.8726 42.1536 25.9999 42.1536ZM25.9999 10.3011C15.659 10.3011 7.89835 17.5179 7.89835 25.9209C7.89835 34.324 15.659 40.651 25.9999 40.651C36.3408 40.651 44.1014 34.324 44.1014 25.9209C44.1014 17.5179 36.3408 10.3011 25.9999 10.3011Z" fill="#00CB62"/>
<path d="M26 39.7414C15.9743 39.7414 7.80005 33.5529 7.80005 25.9407C7.80005 18.3285 15.9546 12.1399 26 12.1399C36.0455 12.1399 44.2 18.3285 44.2 25.9407C44.2 33.5529 36.0258 39.7414 26 39.7414ZM26 12.7331C16.5061 12.7331 9.4152 18.8624 9.4152 25.9407C9.4152 33.019 16.5061 38.2586 26 38.2586C35.494 38.2586 42.5849 33.019 42.5849 25.9407C42.5849 18.8624 35.494 12.7331 26 12.7331Z" fill="#00CB62"/>
<path d="M26.0001 37.3095C16.8016 37.3095 9.33643 32.2084 9.33643 25.9209C9.33643 19.6335 16.8213 14.5323 26.0001 14.5323C35.1788 14.5323 42.6637 19.6335 42.6637 25.9209C42.6637 32.2084 35.1985 37.3095 26.0001 37.3095ZM26.0001 15.1452C17.3334 15.1452 10.9516 20.1871 10.9516 25.9209C10.9516 31.6548 17.3531 35.8068 26.0001 35.8068C34.647 35.8068 41.0485 31.6548 41.0485 25.9209C41.0485 20.1871 34.6667 15.1452 26.0001 15.1452Z" fill="#00CB62"/>
<path d="M26 34.8973C17.6485 34.8973 10.853 30.8836 10.853 25.9407C10.853 20.9977 17.6485 16.984 26 16.984C34.3515 16.984 41.147 20.9977 41.147 25.9407C41.147 30.8836 34.3515 34.8973 26 34.8973ZM26 17.5772C18.1803 17.5772 12.4682 21.5316 12.4682 25.9407C12.4682 30.3498 18.1803 33.3947 26 33.3947C33.8197 33.3947 39.5318 30.33 39.5318 25.9407C39.5318 21.5513 33.8197 17.5772 26 17.5772Z" fill="#00CB62"/>
<path d="M25.9999 32.4654C18.3575 32.4654 12.3696 29.5985 12.3696 25.9209C12.3696 22.2631 18.3575 19.3764 25.9999 19.3764C33.6424 19.3764 39.6302 22.2433 39.6302 25.9209C39.6302 29.5985 33.6424 32.4654 25.9999 32.4654ZM25.9999 20.0091C19.1454 20.0091 14.0045 22.9156 14.0045 25.9407C14.0045 28.946 19.1454 30.9825 25.9999 30.9825C32.8545 30.9825 37.9954 28.9658 37.9954 25.9407C37.9954 22.9156 32.8545 20.0091 25.9999 20.0091Z" fill="#00CB62"/>
<path d="M25.9999 30.0532C20.1302 30.0532 13.906 28.6099 13.906 25.9407C13.906 23.2715 20.1302 21.8281 25.9999 21.8281C31.8696 21.8281 38.0939 23.2715 38.0939 25.9407C38.0939 28.6099 31.8696 30.0532 25.9999 30.0532ZM25.9999 22.4213C19.6378 22.4213 15.5212 24.438 15.5212 25.9209C15.5212 27.4038 19.6378 28.5308 25.9999 28.5308C32.3621 28.5308 36.4787 27.4038 36.4787 25.9209C36.4787 24.4578 32.3621 22.4213 25.9999 22.4213Z" fill="#00CB62"/>
<path d="M25.9999 24.2403C22.0605 24.2403 15.4226 24.4578 15.4226 25.9209C15.4226 27.384 22.0408 27.6015 25.9999 27.6015C29.9393 27.6015 36.5772 27.384 36.5772 25.9209C36.5772 24.4578 29.9393 24.2403 25.9999 24.2403ZM25.9999 26.3757C22.6711 26.3757 17.0968 26.3163 17.0968 25.9209C17.0968 25.5255 22.6711 25.4662 25.9999 25.4662C29.3287 25.4662 34.9029 25.5255 34.9029 25.9209C34.9029 26.3163 29.3287 26.3757 25.9999 26.3757Z" fill="#00CB62"/>
<path d="M82.5105 25.9407V5.2H78.2559V13.4251H66.3983V5.2H62.1438V25.9407H66.3983V17.6958H78.2559V25.9407H82.5105Z" fill="white"/>
<path d="M129.822 5.2H124.563L119.541 13.4251H113.159V5.2H108.904V25.9407H113.159V17.6958H119.541L124.563 25.9407H129.822L123.48 15.5605L129.822 5.2Z" fill="white"/>
<path d="M106.6 15.5605C106.6 9.84639 101.971 5.2 96.2787 5.2H85.3862V9.47072H96.2787C98.7802 9.47072 100.986 10.9932 101.912 13.3262L101.971 13.4844H89.4832V17.6563H101.971L101.912 17.8144C100.986 20.1475 98.7802 21.67 96.2787 21.67H85.3862V25.9407H96.2787C101.951 25.9407 106.6 21.2745 106.6 15.5605Z" fill="white"/>
<path d="M64.9211 46.6814L67.9938 36.4H70.3377L73.4105 46.6814H76.168L72.3074 33.7308H66.0241L62.1438 46.6814H64.9211Z" fill="white"/>
<path d="M88.0256 33.7308H78.2756V36.4H88.0256C88.6953 36.4 89.2469 36.9536 89.2469 37.6259C89.2469 38.2981 88.6953 38.8517 88.0256 38.8517H81.1514V41.5209H88.0256C88.6953 41.5209 89.2469 42.0745 89.2469 42.7468C89.2469 43.419 88.6953 43.9726 88.0256 43.9726H78.2756V46.6418H88.0256C90.1726 46.6418 91.9059 44.8821 91.9059 42.7468C91.9059 41.7582 91.5317 40.8684 90.9408 40.1764C91.5317 39.4844 91.9059 38.5947 91.9059 37.6061C91.9256 35.4905 90.1726 33.7308 88.0256 33.7308Z" fill="white"/>
<path d="M108.077 37.6259C108.077 35.4707 106.344 33.7308 104.197 33.7308H94.7029V46.6814H104.197C106.344 46.6814 108.077 44.9414 108.077 42.7863C108.077 41.7977 107.703 40.8882 107.092 40.1962C107.703 39.5042 108.077 38.6145 108.077 37.6259ZM105.477 37.6259C105.477 38.3179 104.926 38.8715 104.256 38.911C104.236 38.911 104.236 38.911 104.217 38.911H97.3226V36.3605H104.217C104.906 36.3407 105.477 36.9141 105.477 37.6259ZM104.197 44.0517H97.3029V41.5011H104.197C104.217 41.5011 104.217 41.5011 104.236 41.5011C104.926 41.5209 105.457 42.0943 105.457 42.7863C105.477 43.4783 104.906 44.0715 104.197 44.0517Z" fill="white"/>
<path d="M115.739 46.6814H119.167C122.732 46.6814 125.607 43.7749 125.607 40.216C125.607 36.657 122.712 33.7506 119.167 33.7506H115.739C112.174 33.7506 109.298 36.657 109.298 40.216C109.298 43.7749 112.194 46.6814 115.739 46.6814ZM115.739 36.4H119.167C121.254 36.4 122.968 38.1004 122.968 40.216C122.968 42.3118 121.274 44.0319 119.167 44.0319H115.739C113.651 44.0319 111.938 42.3316 111.938 40.216C111.957 38.1004 113.651 36.4 115.739 36.4Z" fill="white"/>
</g>
<defs>
<clipPath id="clip0_157_159">
<rect width="130" height="52" fill="white"/>
</clipPath>
</defs>
</svg>
