<svg width="201" height="80" viewBox="0 0 201 80" fill="none" xmlns="http://www.w3.org/2000/svg">
<g clip-path="url(#clip0_157_311)">
<path d="M40.2001 79.7871C18.1814 79.7871 0.27417 61.9011 0.27417 39.9087C0.27417 17.9163 18.1814 0 40.2001 0C62.2187 0 80.126 17.8859 80.126 39.8783C80.126 61.8707 62.2187 79.7871 40.2001 79.7871ZM40.2001 0.942965C19.0037 0.942965 2.77144 18.7376 2.77144 39.9087C2.77144 61.0798 19.0037 77.4753 40.2001 77.4753C61.3964 77.4753 77.6287 61.0494 77.6287 39.8783C77.6287 18.7072 61.3964 0.942965 40.2001 0.942965Z" fill="#00CB62"/>
<path d="M40.2 76.0456C19.491 76.0456 2.61914 59.8327 2.61914 39.8783C2.61914 19.924 19.491 3.74146 40.2 3.74146C60.9091 3.74146 77.781 19.9544 77.781 39.9088C77.781 59.8631 60.9091 76.0456 40.2 76.0456ZM40.2 4.68442C20.3132 4.68442 5.11641 20.8061 5.11641 39.9088C5.11641 59.0114 20.3132 73.7643 40.2 73.7643C60.0869 73.7643 75.2837 59.0114 75.2837 39.9088C75.2837 20.8061 60.0869 4.68442 40.2 4.68442Z" fill="#00CB62"/>
<path d="M40.2001 72.3346C20.7701 72.3346 4.99463 57.7947 4.99463 39.9088C4.99463 22.0228 20.8005 7.48291 40.2001 7.48291C59.6301 7.48291 75.4055 22.0228 75.4055 39.9088C75.4055 57.7643 59.6301 72.3346 40.2001 72.3346ZM40.2001 8.39546C21.6228 8.39546 7.4919 22.8441 7.4919 39.8784C7.4919 56.943 21.6228 69.9924 40.2001 69.9924C58.7774 69.9924 72.9083 56.9126 72.9083 39.8784C72.9083 22.8441 58.7774 8.39546 40.2001 8.39546Z" fill="#00CB62"/>
<path d="M40.2001 68.5931C22.0796 68.5931 7.3396 55.7262 7.3396 39.9087C7.3396 24.0912 22.0796 11.1938 40.2001 11.1938C58.3205 11.1938 73.0605 24.0608 73.0605 39.8783C73.0605 55.6957 58.3205 68.5931 40.2001 68.5931ZM40.2001 12.1368C22.9019 12.1368 9.83687 24.9125 9.83687 39.9087C9.83687 54.9049 22.9019 66.3117 40.2001 66.3117C57.4982 66.3117 70.5632 54.9049 70.5632 39.9087C70.5632 24.9125 57.4982 12.1368 40.2001 12.1368Z" fill="#00CB62"/>
<path d="M40.2001 64.8517C23.3892 64.8517 9.71509 53.6577 9.71509 39.8783C9.71509 26.0988 23.3892 14.9353 40.2001 14.9353C57.011 14.9353 70.6851 26.1292 70.6851 39.9087C70.6851 53.6882 57.011 64.8517 40.2001 64.8517ZM40.2001 15.8479C24.2114 15.8479 12.2124 26.9505 12.2124 39.8783C12.2124 52.806 24.2114 62.5399 40.2001 62.5399C56.1887 62.5399 68.1878 52.806 68.1878 39.8783C68.1878 26.9505 56.1887 15.8479 40.2001 15.8479Z" fill="#00CB62"/>
<path d="M40.2001 61.1406C24.6987 61.1406 12.0601 51.6197 12.0601 39.9087C12.0601 28.1977 24.6682 18.6768 40.2001 18.6768C55.7319 18.6768 68.3401 28.1977 68.3401 39.9087C68.3401 51.6197 55.7014 61.1406 40.2001 61.1406ZM40.2001 19.5893C25.521 19.5893 14.5573 29.019 14.5573 39.9087C14.5573 50.7984 25.521 58.8593 40.2001 58.8593C54.8792 58.8593 65.8428 50.7984 65.8428 39.9087C65.8428 29.019 54.8792 19.5893 40.2001 19.5893Z" fill="#00CB62"/>
<path d="M40.2001 57.3992C25.9778 57.3992 14.4355 49.5513 14.4355 39.8783C14.4355 30.2053 26.0083 22.3574 40.2001 22.3574C54.3919 22.3574 65.9646 30.2053 65.9646 39.8783C65.9646 49.5513 54.4224 57.3992 40.2001 57.3992ZM40.2001 23.3004C26.8001 23.3004 16.9328 31.057 16.9328 39.8783C16.9328 48.6996 26.8305 55.0875 40.2001 55.0875C53.5696 55.0875 63.4674 48.6996 63.4674 39.8783C63.4674 31.057 53.6001 23.3004 40.2001 23.3004Z" fill="#00CB62"/>
<path d="M40.2001 53.6883C27.2873 53.6883 16.7805 47.5134 16.7805 39.9089C16.7805 32.3043 27.2873 26.1294 40.2001 26.1294C53.1128 26.1294 63.6196 32.3043 63.6196 39.9089C63.6196 47.5134 53.1128 53.6883 40.2001 53.6883ZM40.2001 27.0419C28.1096 27.0419 19.2778 33.1256 19.2778 39.9089C19.2778 46.6921 28.1096 51.3765 40.2001 51.3765C52.2905 51.3765 61.1223 46.6617 61.1223 39.9089C61.1223 33.156 52.2905 27.0419 40.2001 27.0419Z" fill="#00CB62"/>
<path d="M40.2 49.9467C28.3837 49.9467 19.1255 45.5361 19.1255 39.8783C19.1255 34.2509 28.3837 29.8098 40.2 29.8098C52.0164 29.8098 61.2746 34.2205 61.2746 39.8783C61.2746 45.5361 52.0164 49.9467 40.2 49.9467ZM40.2 30.7832C29.6019 30.7832 21.6532 35.2547 21.6532 39.9087C21.6532 44.5322 29.6019 47.6653 40.2 47.6653C50.7982 47.6653 58.7468 44.5627 58.7468 39.9087C58.7468 35.2547 50.7982 30.7832 40.2 30.7832Z" fill="#00CB62"/>
<path d="M40.2001 46.2358C31.1246 46.2358 21.501 44.0152 21.501 39.9088C21.501 35.8023 31.1246 33.5818 40.2001 33.5818C49.2755 33.5818 58.8992 35.8023 58.8992 39.9088C58.8992 44.0152 49.2755 46.2358 40.2001 46.2358ZM40.2001 34.4943C30.3632 34.4943 23.9983 37.597 23.9983 39.8784C23.9983 42.1597 30.3632 43.8936 40.2001 43.8936C50.0369 43.8936 56.4019 42.1597 56.4019 39.8784C56.4019 37.6274 50.0369 34.4943 40.2001 34.4943Z" fill="#00CB62"/>
<path d="M40.2 37.2927C34.1091 37.2927 23.8459 37.6273 23.8459 39.8783C23.8459 42.1292 34.0787 42.4638 40.2 42.4638C46.2909 42.4638 56.5541 42.1292 56.5541 39.8783C56.5541 37.6273 46.2909 37.2927 40.2 37.2927ZM40.2 40.5779C35.0532 40.5779 26.4346 40.4866 26.4346 39.8783C26.4346 39.2699 35.0532 39.1787 40.2 39.1787C45.3469 39.1787 53.9655 39.2699 53.9655 39.8783C53.9655 40.4866 45.3469 40.5779 40.2 40.5779Z" fill="#00CB62"/>
<path d="M127.574 39.9087V8H120.996V20.654H102.662V8H96.0842V39.9087H102.662V27.2243H120.996V39.9087H127.574Z" fill="white"/>
<path d="M200.726 8H192.595L184.829 20.654H174.961V8H168.383V39.9087H174.961V27.2243H184.829L192.595 39.9087H200.726L190.92 23.9392L200.726 8Z" fill="white"/>
<path d="M164.82 23.9392C164.82 15.1483 157.663 8 148.862 8H132.021V14.5703H148.862C152.73 14.5703 156.141 16.9125 157.572 20.5019L157.663 20.7452H138.355V27.1635H157.663L157.572 27.4068C156.141 30.9962 152.73 33.3384 148.862 33.3384H132.021V39.9087H148.862C157.633 39.9087 164.82 32.73 164.82 23.9392Z" fill="white"/>
<path d="M100.378 71.8175L105.129 56H108.753L113.504 71.8175H117.768L111.799 51.8936H102.084L96.0842 71.8175H100.378Z" fill="white"/>
<path d="M136.102 51.8936H121.027V56H136.102C137.137 56 137.99 56.8517 137.99 57.8859C137.99 58.9202 137.137 59.7719 136.102 59.7719H125.473V63.8783H136.102C137.137 63.8783 137.99 64.7301 137.99 65.7643C137.99 66.7985 137.137 67.6502 136.102 67.6502H121.027V71.7567H136.102C139.421 71.7567 142.101 69.0494 142.101 65.7643C142.101 64.2434 141.523 62.8745 140.609 61.8099C141.523 60.7453 142.101 59.3764 142.101 57.8555C142.132 54.6008 139.421 51.8936 136.102 51.8936Z" fill="white"/>
<path d="M167.104 57.8859C167.104 54.5704 164.424 51.8936 161.105 51.8936H146.426V71.8175H161.105C164.424 71.8175 167.104 69.1407 167.104 65.8251C167.104 64.3042 166.526 62.905 165.581 61.8403C166.526 60.7757 167.104 59.4069 167.104 57.8859ZM163.084 57.8859C163.084 58.9506 162.231 59.8023 161.196 59.8631C161.166 59.8631 161.166 59.8631 161.135 59.8631H150.476V55.9392H161.135C162.201 55.9088 163.084 56.7909 163.084 57.8859ZM161.105 67.7719H150.446V63.8479H161.105C161.135 63.8479 161.135 63.8479 161.166 63.8479C162.231 63.8783 163.054 64.7605 163.054 65.8251C163.084 66.8897 162.201 67.8023 161.105 67.7719Z" fill="white"/>
<path d="M178.951 71.8176H184.25C189.762 71.8176 194.209 67.3461 194.209 61.8708C194.209 56.3956 189.732 51.9241 184.25 51.9241H178.951C173.439 51.9241 168.992 56.3956 168.992 61.8708C168.992 67.3461 173.469 71.8176 178.951 71.8176ZM178.951 56.0001H184.25C187.478 56.0001 190.128 58.6161 190.128 61.8708C190.128 65.0952 187.509 67.7416 184.25 67.7416H178.951C175.723 67.7416 173.073 65.1256 173.073 61.8708C173.104 58.6161 175.723 56.0001 178.951 56.0001Z" fill="white"/>
</g>
<defs>
<clipPath id="clip0_157_311">
<rect width="201" height="80" fill="white"/>
</clipPath>
</defs>
</svg>
