<svg width="1024" height="468" viewBox="0 0 1024 468" fill="none" xmlns="http://www.w3.org/2000/svg">
<g filter="url(#filter0_f_2018_320)">
<ellipse cx="1019" cy="319.5" rx="49" ry="175.5" transform="rotate(-180 1019 319.5)" fill="#00CB62"/>
</g>
<path d="M1546.15 -347.812C1546.15 -347.812 923.56 169.639 716.19 341.441C511.741 510.862 606.061 703.366 694.944 732.794" stroke="#00CB62" stroke-width="0.82" stroke-miterlimit="10"/>
<path d="M1531.28 -354.525C1531.28 -354.525 916.826 156.095 713.103 324.913C503.843 498.308 609.148 691.204 700.832 720.127" stroke="#00CB62" stroke-width="0.95" stroke-miterlimit="10"/>
<path d="M1516.42 -361.226C1516.42 -361.226 910.112 142.563 709.999 308.373C495.943 485.738 612.251 679.039 706.735 707.456" stroke="#00CB62" stroke-width="1.07" stroke-miterlimit="10"/>
<path d="M1501.55 -367.939C1501.55 -367.939 903.382 129.036 706.898 291.849C488.045 473.185 615.339 666.878 712.623 694.79" stroke="#00CB62" stroke-width="1.2" stroke-miterlimit="10"/>
<path d="M1486.7 -374.641C1486.7 -374.641 896.666 115.503 703.808 275.306C480.148 460.63 618.426 654.716 718.525 682.119" stroke="#00CB62" stroke-width="1.32" stroke-miterlimit="10"/>
<path d="M1471.83 -381.353C1471.83 -381.353 889.951 101.973 700.703 258.767C472.25 448.077 621.516 642.57 724.413 669.453" stroke="#00CB62" stroke-width="1.44" stroke-miterlimit="10"/>
<path d="M1456.96 -388.052C1456.96 -388.052 883.22 88.4428 697.616 242.238C464.336 435.525 624.603 630.407 730.315 656.781" stroke="#00CB62" stroke-width="1.57" stroke-miterlimit="10"/>
<path d="M1442.1 -394.768C1442.1 -394.768 876.505 74.912 694.512 225.699C456.436 422.956 627.705 618.243 736.203 644.115" stroke="#00CB62" stroke-width="1.69" stroke-miterlimit="10"/>
<path d="M1427.23 -401.466C1427.23 -401.466 869.775 61.3829 691.411 209.173C448.539 410.402 630.793 606.081 742.106 631.444" stroke="#00CB62" stroke-width="1.81" stroke-miterlimit="10"/>
<path d="M1412.37 -408.183C1412.37 -408.183 863.057 47.8362 688.321 192.63C440.64 397.848 633.88 593.919 747.993 618.777" stroke="#00CB62" stroke-width="1.94" stroke-miterlimit="10"/>
<path d="M1397.5 -414.882C1397.5 -414.882 856.327 34.3072 685.217 176.09C432.743 385.293 636.971 581.772 753.881 606.11" stroke="#00CB62" stroke-width="2.06" stroke-miterlimit="10"/>
<path d="M1382.65 -421.597C1382.65 -421.597 849.611 20.7761 682.115 159.566C424.845 372.74 640.073 569.608 759.784 593.44" stroke="#00CB62" stroke-width="2.19" stroke-miterlimit="10"/>
<path d="M1367.78 -428.296C1367.78 -428.296 842.896 7.24399 679.025 143.022C416.944 360.17 643.16 557.445 765.671 580.772" stroke="#00CB62" stroke-width="2.31" stroke-miterlimit="10"/>
<path d="M1352.91 -435.008C1352.91 -435.008 836.166 -6.28345 675.924 126.499C409.047 347.617 646.248 545.285 771.574 568.103" stroke="#00CB62" stroke-width="2.43" stroke-miterlimit="10"/>
<path d="M1338.05 -441.71C1338.05 -441.71 829.451 -19.816 672.819 109.958C401.149 335.062 649.335 533.122 777.462 555.435" stroke="#00CB62" stroke-width="2.56" stroke-miterlimit="10"/>
<path d="M1323.18 -448.423C1323.18 -448.423 822.72 -33.3442 669.73 93.4155C393.251 322.508 652.425 520.976 783.364 542.766" stroke="#00CB62" stroke-width="2.68" stroke-miterlimit="10"/>
<path d="M1308.33 -455.125C1308.33 -455.125 816.005 -46.8767 666.628 76.8899C385.354 309.953 655.528 508.81 789.249 530.083" stroke="#00CB62" stroke-width="2.8" stroke-miterlimit="10"/>
<path d="M1293.45 -461.838C1293.45 -461.838 809.272 -60.4204 663.524 60.3499C377.453 297.384 658.615 496.648 795.152 517.412" stroke="#00CB62" stroke-width="2.93" stroke-miterlimit="10"/>
<path d="M1278.59 -468.537C1278.59 -468.537 802.557 -73.9523 660.437 43.8218C369.555 284.83 661.702 484.486 801.04 504.745" stroke="#00CB62" stroke-width="3.05" stroke-miterlimit="10"/>
<path d="M1263.73 -475.253C1263.73 -475.253 795.841 -87.4834 657.333 27.2824C361.657 272.276 664.79 472.325 806.927 492.078" stroke="#00CB62" stroke-width="3.18" stroke-miterlimit="10"/>
<path d="M1248.86 -481.952C1248.86 -481.952 789.111 -101.013 654.228 10.7414C353.76 259.721 667.877 460.162 812.83 479.407" stroke="#00CB62" stroke-width="3.3" stroke-miterlimit="10"/>
<defs>
<filter id="filter0_f_2018_320" x="670" y="-156" width="698" height="951" filterUnits="userSpaceOnUse" color-interpolation-filters="sRGB">
<feFlood flood-opacity="0" result="BackgroundImageFix"/>
<feBlend mode="normal" in="SourceGraphic" in2="BackgroundImageFix" result="shape"/>
<feGaussianBlur stdDeviation="150" result="effect1_foregroundBlur_2018_320"/>
</filter>
</defs>
</svg>
