<svg width="1920" height="350" viewBox="0 0 1920 350" fill="none" xmlns="http://www.w3.org/2000/svg">
<g clip-path="url(#clip0_2018_204)">
<path d="M2071.26 -358.398C2071.26 -358.398 1535.89 86.5583 1357.57 234.291C1181.77 379.976 1262.87 545.511 1339.3 570.816" stroke="#00CB62" stroke-width="0.82" stroke-miterlimit="10"/>
<path d="M2058.47 -364.171C2058.47 -364.171 1530.1 74.9121 1354.92 220.079C1174.98 369.181 1265.53 535.053 1344.37 559.923" stroke="#00CB62" stroke-width="0.95" stroke-miterlimit="10"/>
<path d="M2045.7 -369.933C2045.7 -369.933 1524.33 63.2762 1352.25 205.856C1168.18 358.373 1268.2 524.593 1349.44 549.028" stroke="#00CB62" stroke-width="1.07" stroke-miterlimit="10"/>
<path d="M2032.91 -375.705C2032.91 -375.705 1518.54 51.6435 1349.58 191.647C1161.39 347.578 1270.85 514.135 1354.51 538.136" stroke="#00CB62" stroke-width="1.2" stroke-miterlimit="10"/>
<path d="M2020.13 -381.468C2020.13 -381.468 1512.77 40.007 1346.93 177.421C1154.6 336.782 1273.51 503.677 1359.58 527.24" stroke="#00CB62" stroke-width="1.32" stroke-miterlimit="10"/>
<path d="M2007.35 -387.24C2007.35 -387.24 1506.99 28.3721 1344.26 163.2C1147.81 325.988 1276.16 493.233 1364.64 516.349" stroke="#00CB62" stroke-width="1.44" stroke-miterlimit="10"/>
<path d="M1994.56 -393.001C1994.56 -393.001 1501.2 16.7376 1341.6 148.986C1141 315.194 1278.82 482.774 1369.72 505.453" stroke="#00CB62" stroke-width="1.57" stroke-miterlimit="10"/>
<path d="M1981.78 -398.776C1981.78 -398.776 1495.43 5.1024 1338.93 134.764C1134.21 304.386 1281.49 472.314 1374.78 494.561" stroke="#00CB62" stroke-width="1.69" stroke-miterlimit="10"/>
<path d="M1969 -404.536C1969 -404.536 1489.64 -6.53112 1336.27 120.554C1127.42 293.591 1284.14 461.855 1379.86 483.665" stroke="#00CB62" stroke-width="1.81" stroke-miterlimit="10"/>
<path d="M1956.22 -410.311C1956.22 -410.311 1483.86 -18.1801 1333.61 106.329C1120.63 282.795 1286.8 451.397 1384.92 472.773" stroke="#00CB62" stroke-width="1.94" stroke-miterlimit="10"/>
<path d="M1943.44 -416.071C1943.44 -416.071 1478.08 -29.8133 1330.94 92.106C1113.84 272 1289.45 440.952 1389.98 461.88" stroke="#00CB62" stroke-width="2.06" stroke-miterlimit="10"/>
<path d="M1930.66 -421.846C1930.66 -421.846 1472.3 -41.4489 1328.27 77.8966C1107.05 261.205 1292.12 430.492 1395.06 450.986" stroke="#00CB62" stroke-width="2.19" stroke-miterlimit="10"/>
<path d="M1917.87 -427.607C1917.87 -427.607 1466.53 -53.0855 1325.62 63.6706C1100.25 250.396 1294.77 420.034 1400.12 440.092" stroke="#00CB62" stroke-width="2.31" stroke-miterlimit="10"/>
<path d="M1905.09 -433.378C1905.09 -433.378 1460.74 -64.7175 1322.95 49.4621C1093.46 239.602 1297.43 409.577 1405.2 429.198" stroke="#00CB62" stroke-width="2.43" stroke-miterlimit="10"/>
<path d="M1892.31 -439.142C1892.31 -439.142 1454.97 -76.3544 1320.28 35.2385C1086.67 228.806 1300.08 399.118 1410.26 418.305" stroke="#00CB62" stroke-width="2.56" stroke-miterlimit="10"/>
<path d="M1879.52 -444.914C1879.52 -444.914 1449.18 -87.9872 1317.62 21.0136C1079.88 218.011 1302.74 388.673 1415.34 407.41" stroke="#00CB62" stroke-width="2.68" stroke-miterlimit="10"/>
<path d="M1866.75 -450.677C1866.75 -450.677 1443.4 -99.6238 1314.95 6.80324C1073.09 207.215 1305.41 378.212 1420.4 396.504" stroke="#00CB62" stroke-width="2.8" stroke-miterlimit="10"/>
<path d="M1853.96 -456.45C1853.96 -456.45 1437.61 -111.27 1312.29 -7.41935C1066.29 196.407 1308.06 367.754 1425.47 385.609" stroke="#00CB62" stroke-width="2.93" stroke-miterlimit="10"/>
<path d="M1841.18 -462.21C1841.18 -462.21 1431.84 -122.906 1309.63 -21.6319C1059.5 185.611 1310.72 357.296 1430.54 374.716" stroke="#00CB62" stroke-width="3.05" stroke-miterlimit="10"/>
<path d="M1828.4 -467.985C1828.4 -467.985 1426.07 -134.542 1306.96 -35.8543C1052.71 174.816 1313.37 346.838 1435.6 363.824" stroke="#00CB62" stroke-width="3.18" stroke-miterlimit="10"/>
<path d="M1815.62 -473.745C1815.62 -473.745 1420.28 -146.176 1304.29 -50.0777C1045.92 164.02 1316.03 336.38 1440.67 352.928" stroke="#00CB62" stroke-width="3.3" stroke-miterlimit="10"/>
<g filter="url(#filter0_f_2018_204)">
<ellipse cx="1468.03" cy="206.028" rx="47" ry="168" transform="rotate(-135 1468.03 206.028)" fill="#00CB62"/>
</g>
</g>
<defs>
<filter id="filter0_f_2018_204" x="1044.64" y="-217.359" width="846.773" height="846.773" filterUnits="userSpaceOnUse" color-interpolation-filters="sRGB">
<feFlood flood-opacity="0" result="BackgroundImageFix"/>
<feBlend mode="normal" in="SourceGraphic" in2="BackgroundImageFix" result="shape"/>
<feGaussianBlur stdDeviation="150" result="effect1_foregroundBlur_2018_204"/>
</filter>
<clipPath id="clip0_2018_204">
<rect width="1920" height="350" fill="white"/>
</clipPath>
</defs>
</svg>
