<svg width="42" height="52" viewBox="0 0 42 52" fill="none" xmlns="http://www.w3.org/2000/svg">
<path d="M20.667 1L21.1514 1.00586C23.5729 1.06675 25.9636 1.57604 28.2021 2.50879C30.5893 3.50349 32.7562 4.9605 34.5781 6.7959C38.2634 10.5037 40.3329 15.531 40.333 20.7676C40.333 29.4509 35.5657 36.9612 31.0977 42.1289L31.0967 42.1299C29.1838 44.3334 27.1088 46.3912 24.8906 48.2871C24.0454 49.0102 23.3359 49.5758 22.832 49.9619C22.5832 50.1526 22.3847 50.3017 22.2402 50.4072L22.2354 50.4111L22.0898 50.5156L22.0615 50.5381L22.0449 50.5508L22.0273 50.5635L22.0137 50.5723L21.9531 50.6143L21.9248 50.6279C21.1591 51.1191 20.1774 51.1199 19.4111 50.6299L19.3574 50.6035L19.29 50.5508L19.2607 50.5312L19.249 50.5225C18.9971 50.3387 18.748 50.1512 18.501 49.9609C18.1227 49.671 17.6294 49.2814 17.0498 48.7998L16.4424 48.2881C14.2242 46.3921 12.1503 44.3335 10.2373 42.1299L10.2354 42.1289C5.76732 36.9612 1.00007 29.4515 1 20.7695L1.00586 20.2793C1.12891 15.2219 3.18168 10.3954 6.75391 6.7959C8.57613 4.96029 10.7442 3.50245 13.1318 2.50781C15.5192 1.51334 18.0798 1.00102 20.666 1H20.667ZM20.667 15C19.1641 15 17.7229 15.5975 16.6602 16.6602C15.5975 17.7229 15 19.1641 15 20.667C15.0001 22.1698 15.5975 23.6112 16.6602 24.6738C17.7228 25.7363 19.1643 26.333 20.667 26.333C22.1698 26.3329 23.6112 25.7365 24.6738 24.6738C25.7365 23.6112 26.3329 22.1698 26.333 20.667C26.333 19.1643 25.7363 17.7228 24.6738 16.6602C23.6112 15.5975 22.1698 15.0001 20.667 15Z" fill="#141414" stroke="white" stroke-width="2"/>
</svg>
