<svg width="102" height="80" viewBox="0 0 102 80" fill="none" xmlns="http://www.w3.org/2000/svg">
<path d="M91.8076 2H61.2305C60.3972 2 59.6052 2.32473 59.0273 2.8916V2.89258C58.451 3.45821 58.1338 4.21695 58.1338 5V45.2021L58.1172 45.2832C58.1169 45.2876 58.1165 45.2921 58.1162 45.2969C58.1112 45.3806 58.1054 45.5131 58.1006 45.6895C58.091 46.0418 58.0877 46.5634 58.1133 47.2236C58.1645 48.5462 58.3299 50.4118 58.7812 52.5781C59.6854 56.9176 61.7199 62.3921 66.209 67.1699C72.8601 74.2443 83.0673 77.9999 96.9033 78H100V67.5469L97.5244 67.0625H97.5225C90.2168 65.6299 84.7279 62.7116 81.7246 58.0654L81.7178 58.0547L81.7109 58.0449C80.2038 55.6477 79.3451 52.9085 79.2197 50.0889L79.127 48H96.9033C97.7366 48 98.5286 47.6744 99.1064 47.1074H99.1074C99.6836 46.5418 100 45.7829 100 45V10C100 5.62533 96.3602 2 91.8076 2ZM35.7139 2H5.13672C4.30346 2 3.51143 2.32475 2.93359 2.8916V2.89258C2.35726 3.45821 2.04004 4.21693 2.04004 5V45.2021L2.02539 45.2783C2.02504 45.2839 2.02381 45.2897 2.02344 45.2959C2.01841 45.3796 2.01159 45.5121 2.00684 45.6885C1.99734 46.0409 1.99473 46.563 2.02051 47.2236C2.07214 48.5463 2.23778 50.4117 2.68945 52.5781C3.59422 56.9178 5.62873 62.3921 10.1152 67.1699C16.7663 74.2443 26.9735 77.9999 40.8096 78H43.9062V67.5469L41.4307 67.0625H41.4287C34.123 65.6299 28.6342 62.7116 25.6309 58.0654L25.624 58.0547L25.6172 58.0449C24.1101 55.6477 23.2514 52.9085 23.126 50.0889L23.0332 48H40.8096C41.6429 48 42.4348 47.6744 43.0127 47.1074H43.0137C43.5898 46.5418 43.9062 45.7829 43.9062 45V10C43.9062 5.62534 40.2665 2.00002 35.7139 2Z" stroke="#232323" stroke-width="4"/>
</svg>
