<svg width="122" height="49" viewBox="0 0 122 49" fill="none" xmlns="http://www.w3.org/2000/svg">
<path d="M49.5039 2H33.0166C32.8925 2 32.7227 2.05278 32.5615 2.23242C32.394 2.4192 32.2686 2.71499 32.2686 3.0625V27.7402L32.2568 27.8057C32.2547 27.8512 32.252 27.9161 32.25 27.999C32.2451 28.2037 32.2435 28.5121 32.2568 28.9043C32.2837 29.69 32.3706 30.8015 32.6074 32.0928C33.084 34.6911 34.1491 37.9159 36.4561 40.7051C39.8342 44.7865 45.0288 47 52.252 47H53V41.9678L52.3594 41.8262H52.3584C48.2265 40.9058 45.002 38.9957 43.2344 35.8896L43.2285 35.8789L43.2227 35.8691C42.3534 34.2985 41.8661 32.5201 41.7949 30.7031L41.7139 28.625H52.252C52.3761 28.625 52.5458 28.5722 52.707 28.3926C52.8746 28.2058 53 27.91 53 27.5625V6.125C53 3.64226 51.232 2 49.5039 2ZM19.2578 2H2.76953C2.64549 2.00007 2.47646 2.05308 2.31543 2.23242C2.14784 2.41919 2.02148 2.71495 2.02148 3.0625V27.7402L2.01172 27.7988C2.00952 27.8447 2.00597 27.9121 2.00391 27.999C1.99905 28.2037 1.99728 28.5114 2.01074 28.9033C2.03774 29.6891 2.12427 30.8011 2.36133 32.0928C2.83825 34.6912 3.90353 37.9159 6.20898 40.7051C9.5871 44.7865 14.7826 47 22.0059 47H22.7529V41.9678L22.1133 41.8262H22.1123C17.9804 40.9059 14.756 38.9956 12.9883 35.8896L12.9824 35.8789L12.9766 35.8691C12.1073 34.2985 11.62 32.5201 11.5488 30.7031L11.4678 28.625H22.0059C22.1299 28.6249 22.299 28.5719 22.46 28.3926C22.6276 28.2058 22.7529 27.91 22.7529 27.5625V6.125C22.7529 3.64243 20.9858 2.00023 19.2578 2Z" stroke="#232323" stroke-width="4"/>
<path d="M72.4961 47H88.9834C89.1075 47 89.2773 46.9472 89.4385 46.7676C89.606 46.5808 89.7314 46.285 89.7314 45.9375V21.2598L89.7432 21.1943C89.7453 21.1488 89.748 21.0839 89.75 21.001C89.7549 20.7963 89.7565 20.4879 89.7432 20.0957C89.7163 19.31 89.6294 18.1985 89.3926 16.9072C88.916 14.3089 87.8509 11.0841 85.5439 8.29492C82.1658 4.2135 76.9712 2.00002 69.748 2H69V7.03223L69.6406 7.17383H69.6416C73.7735 8.09416 76.998 10.0043 78.7656 13.1104L78.7715 13.1211L78.7773 13.1309C79.6466 14.7015 80.1339 16.4799 80.2051 18.2969L80.2861 20.375H69.748C69.6239 20.375 69.4542 20.4278 69.293 20.6074C69.1254 20.7942 69 21.09 69 21.4375V42.875C69 45.3577 70.768 47 72.4961 47ZM102.742 47H119.23C119.355 46.9999 119.524 46.9469 119.685 46.7676C119.852 46.5808 119.979 46.2851 119.979 45.9375V21.2598L119.988 21.2012C119.99 21.1553 119.994 21.0879 119.996 21.001C120.001 20.7963 120.003 20.4886 119.989 20.0967C119.962 19.3109 119.876 18.1989 119.639 16.9072C119.162 14.3088 118.096 11.0841 115.791 8.29492C112.413 4.21348 107.217 2 99.9941 2H99.2471V7.03223L99.8867 7.17383H99.8877C104.02 8.09413 107.244 10.0044 109.012 13.1104L109.018 13.1211L109.023 13.1309C109.893 14.7015 110.38 16.4799 110.451 18.2969L110.532 20.375H99.9941C99.8701 20.3751 99.701 20.4281 99.54 20.6074C99.3724 20.7942 99.2471 21.09 99.2471 21.4375V42.875C99.2471 45.3576 101.014 46.9998 102.742 47Z" stroke="#232323" stroke-width="4"/>
</svg>
