<svg width="24" height="24" viewBox="0 0 24 24" fill="none" xmlns="http://www.w3.org/2000/svg">
<path d="M15.4963 15.4963C16.0128 14.9797 16.4226 14.3665 16.7022 13.6916C16.9817 13.0167 17.1256 12.2933 17.1256 11.5628C17.1256 10.8323 16.9817 10.1089 16.7022 9.43401C16.4226 8.7591 16.0128 8.14586 15.4963 7.62931C14.9797 7.11275 14.3665 6.703 13.6916 6.42344C13.0167 6.14389 12.2933 6 11.5628 6C10.8323 6 10.1089 6.14389 9.43401 6.42344C8.7591 6.703 8.14586 7.11275 7.62931 7.62931C6.58608 8.67253 6 10.0875 6 11.5628C6 13.0381 6.58608 14.4531 7.62931 15.4963C8.67253 16.5395 10.0875 17.1256 11.5628 17.1256C13.0381 17.1256 14.4531 16.5395 15.4963 15.4963ZM15.4963 15.4963L19 19" stroke="#00CB62" stroke-width="1.2" stroke-linecap="round" stroke-linejoin="round"/>
</svg>
