<svg width="331" height="64" viewBox="0 0 331 64" fill="none" xmlns="http://www.w3.org/2000/svg">
<path d="M414.842 -42.4851C414.842 -42.4851 144.72 11.6153 54.8345 29.4608C-33.791 47.0672 -35.0467 124.894 -12.567 149.973" stroke="#00CB62" stroke-width="0.82" stroke-miterlimit="10"/>
<path d="M411.19 -47.4361C411.19 -47.4361 144.66 5.96839 56.3655 23.5224C-34.3264 41.5498 -32.2984 121.49 -8.8916 146.918" stroke="#00CB62" stroke-width="0.95" stroke-miterlimit="10"/>
<path d="M407.541 -52.3786C407.541 -52.3786 144.602 0.329328 57.8913 17.5776C-34.8611 36.0283 -29.5469 118.09 -5.21331 143.868" stroke="#00CB62" stroke-width="1.07" stroke-miterlimit="10"/>
<path d="M403.888 -57.3271C403.888 -57.3271 144.537 -5.31075 59.4136 11.6386C-35.3983 30.5133 -26.8026 114.692 -1.54264 140.819" stroke="#00CB62" stroke-width="1.2" stroke-miterlimit="10"/>
<path d="M400.239 -62.2677C400.239 -62.2677 144.477 -10.9486 60.941 5.6962C-35.9363 24.9993 -24.0601 111.297 2.13108 137.776" stroke="#00CB62" stroke-width="1.32" stroke-miterlimit="10"/>
<path d="M396.587 -67.2145C396.587 -67.2145 144.415 -16.5861 62.4615 -0.247663C-36.475 19.4862 -21.3209 107.911 5.79754 134.734" stroke="#00CB62" stroke-width="1.44" stroke-miterlimit="10"/>
<path d="M392.933 -72.1553C392.933 -72.1553 144.347 -22.225 63.9843 -6.18449C-37.0193 13.9722 -18.5818 104.521 9.46713 131.696" stroke="#00CB62" stroke-width="1.57" stroke-miterlimit="10"/>
<path d="M389.285 -77.0997C389.285 -77.0997 144.284 -27.8624 65.502 -12.1288C-37.5575 8.45492 -15.8392 101.136 13.1299 128.66" stroke="#00CB62" stroke-width="1.69" stroke-miterlimit="10"/>
<path d="M385.631 -82.0401C385.631 -82.0401 144.214 -33.5015 67.0167 -18.0678C-38.0978 2.94365 -13.1033 97.7524 16.7956 125.628" stroke="#00CB62" stroke-width="1.81" stroke-miterlimit="10"/>
<path d="M381.983 -86.9844C381.983 -86.9844 144.149 -39.1449 68.5363 -24.0115C-38.6386 -2.56772 -10.369 94.3705 20.4544 122.597" stroke="#00CB62" stroke-width="1.94" stroke-miterlimit="10"/>
<path d="M378.33 -91.9247C378.33 -91.9247 144.078 -44.7846 70.0497 -29.957C-39.1796 -8.07824 -7.6374 90.9969 24.1115 119.57" stroke="#00CB62" stroke-width="2.06" stroke-miterlimit="10"/>
<path d="M374.682 -96.8693C374.682 -96.8693 144.01 -50.4235 71.5602 -35.8983C-39.721 -13.5891 -4.90077 87.6215 27.7719 116.546" stroke="#00CB62" stroke-width="2.19" stroke-miterlimit="10"/>
<path d="M371.028 -101.81C371.028 -101.81 143.942 -56.0625 73.0758 -41.8436C-40.2611 -19.1047 -2.17044 84.2471 31.4256 113.523" stroke="#00CB62" stroke-width="2.31" stroke-miterlimit="10"/>
<path d="M367.375 -106.757C367.375 -106.757 143.868 -61.7041 74.5834 -47.7863C-40.803 -24.6149 0.558304 80.8752 35.0824 110.505" stroke="#00CB62" stroke-width="2.43" stroke-miterlimit="10"/>
<path d="M363.726 -111.697C363.726 -111.697 143.798 -67.3449 76.0912 -53.7355C-41.3452 -30.1253 3.28587 77.505 38.7326 107.487" stroke="#00CB62" stroke-width="2.56" stroke-miterlimit="10"/>
<path d="M360.074 -116.645C360.074 -116.645 143.721 -72.9882 77.6026 -59.684C-41.8874 -35.6356 6.01071 74.1428 42.3861 104.474" stroke="#00CB62" stroke-width="2.68" stroke-miterlimit="10"/>
<path d="M356.425 -121.586C356.425 -121.586 143.65 -78.6311 79.1063 -65.6305C-42.4298 -41.1465 8.74086 70.7783 46.0345 101.455" stroke="#00CB62" stroke-width="2.8" stroke-miterlimit="10"/>
<path d="M352.772 -126.535C352.772 -126.535 143.573 -84.2818 80.6096 -71.5833C-42.9712 -46.6624 11.4643 67.4149 49.6845 98.4469" stroke="#00CB62" stroke-width="2.93" stroke-miterlimit="10"/>
<path d="M349.118 -131.48C349.118 -131.48 143.499 -89.9264 82.1155 -77.5302C-43.5138 -52.173 14.1869 64.0537 53.3281 95.4392" stroke="#00CB62" stroke-width="3.05" stroke-miterlimit="10"/>
<path d="M345.471 -136.429C345.471 -136.429 143.424 -95.5723 83.6162 -83.4858C-44.0567 -57.684 16.908 60.6944 56.9699 92.4337" stroke="#00CB62" stroke-width="3.18" stroke-miterlimit="10"/>
<path d="M341.817 -141.375C341.817 -141.375 143.343 -101.221 85.1154 -89.4428C-44.5996 -63.195 19.628 57.3373 60.6151 89.4323" stroke="#00CB62" stroke-width="3.3" stroke-miterlimit="10"/>
<g opacity="0.34" filter="url(#filter0_f_2035_500)">
<ellipse cx="30.5004" cy="19.1293" rx="62.5004" ry="116" fill="#00CB62"/>
</g>
<defs>
<filter id="filter0_f_2035_500" x="-132" y="-196.871" width="325.001" height="432" filterUnits="userSpaceOnUse" color-interpolation-filters="sRGB">
<feFlood flood-opacity="0" result="BackgroundImageFix"/>
<feBlend mode="normal" in="SourceGraphic" in2="BackgroundImageFix" result="shape"/>
<feGaussianBlur stdDeviation="50" result="effect1_foregroundBlur_2035_500"/>
</filter>
</defs>
</svg>
