<svg width="122" height="21" viewBox="0 0 122 21" fill="none" xmlns="http://www.w3.org/2000/svg">
<path d="M46.8251 1.07976C48.4107 1.07976 49.2034 1.82776 49.2034 3.32376C49.2034 4.81976 48.4107 5.56776 46.8251 5.56776H42.4883V8.47176C42.4883 8.82376 42.3018 8.99976 41.9287 8.99976H41.0894V1.07976H46.8251ZM46.5454 4.51176C47.3847 4.51176 47.8044 4.11576 47.8044 3.32376C47.8044 2.53176 47.3847 2.13576 46.5454 2.13576H42.4883V4.51176H46.5454ZM54.7618 2.66376C56.3473 2.66376 57.14 3.41176 57.14 4.90776V8.99976H56.3007C55.9276 8.99976 55.7411 8.82376 55.7411 8.47176V8.00976C55.3913 8.66976 54.8667 8.99976 54.1672 8.99976H52.0338C50.7281 8.99976 50.0752 8.38376 50.0752 7.15176C50.0752 5.91976 50.7281 5.30376 52.0338 5.30376H55.7411V4.90776C55.7411 4.11576 55.3214 3.71976 54.482 3.71976H50.9146C50.5415 3.71976 50.355 3.54376 50.355 3.19176V2.66376H54.7618ZM55.7411 7.01976V6.35976H52.3136C51.754 6.35976 51.4742 6.62376 51.4742 7.15176C51.4742 7.67976 51.754 7.94376 52.3136 7.94376H54.2721C54.925 7.94376 55.4146 7.63576 55.7411 7.01976ZM63.9737 5.79876C64.545 6.01876 64.8248 6.50276 64.8248 7.25076C64.8248 8.41676 64.2069 8.99976 62.9711 8.99976H58.2496V8.47176C58.2496 8.11976 58.4361 7.94376 58.8092 7.94376H62.5864C63.146 7.94376 63.4258 7.67976 63.4258 7.15176C63.4258 6.62376 63.146 6.35976 62.5864 6.35976H58.8092V5.30376H62.4465C63.0061 5.30376 63.2859 5.03976 63.2859 4.51176C63.2859 3.98376 63.0061 3.71976 62.4465 3.71976H58.9491C58.576 3.71976 58.3895 3.54376 58.3895 3.19176V2.66376H62.8312C64.067 2.66376 64.6849 3.24676 64.6849 4.41276C64.6849 5.09476 64.4517 5.55676 63.9737 5.79876ZM70.7419 2.66376C72.3274 2.66376 73.1201 3.41176 73.1201 4.90776V6.75576C73.1201 8.25176 72.3274 8.99976 70.7419 8.99976H68.9582C68.2587 8.99976 67.7341 8.66976 67.3844 8.00976V10.4518C67.3844 10.8038 67.1978 10.9798 66.8248 10.9798H65.9854V2.66376H66.8248C67.1978 2.66376 67.3844 2.83976 67.3844 3.19176V3.65376C67.7341 2.99376 68.2587 2.66376 68.9582 2.66376H70.7419ZM71.7212 6.75576V4.90776C71.7212 4.11576 71.3015 3.71976 70.4621 3.71976H68.8533C68.2004 3.71976 67.7108 4.02776 67.3844 4.64376V7.01976C67.7108 7.63576 68.2004 7.94376 68.8533 7.94376H70.4621C71.3015 7.94376 71.7212 7.54776 71.7212 6.75576ZM78.8522 2.66376C80.4377 2.66376 81.2305 3.41176 81.2305 4.90776V8.99976H80.3911C80.018 8.99976 79.8315 8.82376 79.8315 8.47176V8.00976C79.4818 8.66976 78.9572 8.99976 78.2577 8.99976H76.1242C74.8185 8.99976 74.1657 8.38376 74.1657 7.15176C74.1657 5.91976 74.8185 5.30376 76.1242 5.30376H79.8315V4.90776C79.8315 4.11576 79.4118 3.71976 78.5724 3.71976H75.0051C74.632 3.71976 74.4455 3.54376 74.4455 3.19176V2.66376H78.8522ZM79.8315 7.01976V6.35976H76.404C75.8444 6.35976 75.5646 6.62376 75.5646 7.15176C75.5646 7.67976 75.8444 7.94376 76.404 7.94376H78.3626C79.0154 7.94376 79.5051 7.63576 79.8315 7.01976ZM85.6742 2.66376C84.4618 2.66376 83.8556 3.23576 83.8556 4.37976V4.57776C84.2053 3.91776 84.7299 3.58776 85.4294 3.58776H87.353C88.9385 3.58776 89.7313 4.33576 89.7313 5.83176V6.75576C89.7313 8.25176 88.9385 8.99976 87.353 8.99976H84.8349C83.2494 8.99976 82.4566 8.25176 82.4566 6.75576V4.37976C82.4566 2.53176 83.4359 1.60776 85.3944 1.60776H87.4929C88.0525 1.60776 88.3323 1.34376 88.3323 0.815762V0.683762C88.3323 0.331762 88.5188 0.155762 88.8919 0.155762H89.7313V0.815762C89.7313 2.04776 89.0784 2.66376 87.7727 2.66376H85.6742ZM85.3245 4.64376C84.6716 4.64376 84.182 4.95176 83.8556 5.56776V6.75576C83.8556 7.54776 84.2753 7.94376 85.1147 7.94376H87.0732C87.9126 7.94376 88.3323 7.54776 88.3323 6.75576V5.83176C88.3323 5.03976 87.9126 4.64376 87.0732 4.64376H85.3245ZM95.7891 2.66376C97.3746 2.66376 98.1674 3.41176 98.1674 4.90776V6.75576C98.1674 8.25176 97.3746 8.99976 95.7891 8.99976H93.271C91.6855 8.99976 90.8927 8.25176 90.8927 6.75576V4.90776C90.8927 3.41176 91.6855 2.66376 93.271 2.66376H95.7891ZM96.7684 6.75576V4.90776C96.7684 4.11576 96.3487 3.71976 95.5093 3.71976H93.5508C92.7114 3.71976 92.2917 4.11576 92.2917 4.90776V6.75576C92.2917 7.54776 92.7114 7.94376 93.5508 7.94376H95.5093C96.3487 7.94376 96.7684 7.54776 96.7684 6.75576ZM98.8627 2.66376H106.137V3.19176C106.137 3.54376 105.951 3.71976 105.578 3.71976H103.199V8.99976H101.801V3.71976H99.4222C99.0492 3.71976 98.8627 3.54376 98.8627 3.19176V2.66376ZM114.083 2.66376L111.262 5.83176L114.083 8.99976H112.999C112.626 8.99976 112.288 8.82376 111.973 8.47176L110.096 6.35976H108.347V8.47176C108.347 8.82376 108.161 8.99976 107.788 8.99976H106.948V2.66376H107.788C108.161 2.66376 108.347 2.83976 108.347 3.19176V5.30376H110.096L111.973 3.19176C112.288 2.83976 112.626 2.66376 112.999 2.66376H114.083ZM119.53 2.66376C121.116 2.66376 121.909 3.41176 121.909 4.90776V8.99976H121.069C120.696 8.99976 120.51 8.82376 120.51 8.47176V8.00976C120.16 8.66976 119.635 8.99976 118.936 8.99976H116.802C115.497 8.99976 114.844 8.38376 114.844 7.15176C114.844 5.91976 115.497 5.30376 116.802 5.30376H120.51V4.90776C120.51 4.11576 120.09 3.71976 119.251 3.71976H115.683C115.31 3.71976 115.124 3.54376 115.124 3.19176V2.66376H119.53ZM120.51 7.01976V6.35976H117.082C116.523 6.35976 116.243 6.62376 116.243 7.15176C116.243 7.67976 116.523 7.94376 117.082 7.94376H119.041C119.694 7.94376 120.183 7.63576 120.51 7.01976Z" fill="#646464"/>
<path d="M46.8711 19.9434C47.2441 19.9434 47.4307 20.1194 47.4307 20.4714V20.9994H43.2337C41.6482 20.9994 40.8555 20.2514 40.8555 18.7554V16.9074C40.8555 15.4114 41.6482 14.6634 43.2337 14.6634H47.2908V15.1914C47.2908 15.5434 47.1042 15.7194 46.7312 15.7194H43.5135C42.6741 15.7194 42.2544 16.1154 42.2544 16.9074V18.7554C42.2544 19.5474 42.6741 19.9434 43.5135 19.9434H46.8711ZM52.8712 14.6634C54.4567 14.6634 55.2494 15.4114 55.2494 16.9074V20.9994H54.4101C54.037 20.9994 53.8505 20.8234 53.8505 20.4714V20.0094C53.5007 20.6694 52.9761 20.9994 52.2766 20.9994H50.1432C48.8375 20.9994 48.1846 20.3834 48.1846 19.1514C48.1846 17.9194 48.8375 17.3034 50.1432 17.3034H53.8505V16.9074C53.8505 16.1154 53.4308 15.7194 52.5914 15.7194H49.024C48.6509 15.7194 48.4644 15.5434 48.4644 15.1914V14.6634H52.8712ZM53.8505 19.0194V18.3594H50.423C49.8634 18.3594 49.5836 18.6234 49.5836 19.1514C49.5836 19.6794 49.8634 19.9434 50.423 19.9434H52.3815C53.0344 19.9434 53.524 19.6354 53.8505 19.0194ZM59.53 13.8714C58.5973 13.8714 58.131 13.4314 58.131 12.5514V12.0234H58.9704C59.2036 12.0234 59.3201 12.1334 59.3201 12.3534V12.5514C59.3201 12.8594 59.4833 13.0134 59.8098 13.0134H60.3694C60.6958 13.0134 60.859 12.8594 60.859 12.5514V12.3534C60.859 12.1334 60.9756 12.0234 61.2087 12.0234H62.0481V12.5514C62.0481 13.4314 61.5818 13.8714 60.6492 13.8714H59.53ZM62.188 14.6634H63.587V20.9994H62.7476C62.3746 20.9994 62.188 20.8234 62.188 20.4714V16.3024L57.9911 20.9994H56.5921V14.6634H57.4315C57.8046 14.6634 57.9911 14.8394 57.9911 15.1914V19.3604L62.188 14.6634ZM64.3999 14.6634H71.6746V15.1914C71.6746 15.5434 71.488 15.7194 71.115 15.7194H68.7367V20.9994H67.3377V15.7194H64.9595C64.5864 15.7194 64.3999 15.5434 64.3999 15.1914V14.6634ZM76.9388 14.6634C78.5243 14.6634 79.3171 15.4114 79.3171 16.9074V20.9994H78.4777C78.1047 20.9994 77.9181 20.8234 77.9181 20.4714V20.0094C77.5684 20.6694 77.0438 20.9994 76.3443 20.9994H74.2108C72.9051 20.9994 72.2523 20.3834 72.2523 19.1514C72.2523 17.9194 72.9051 17.3034 74.2108 17.3034H77.9181V16.9074C77.9181 16.1154 77.4984 15.7194 76.659 15.7194H73.0917C72.7186 15.7194 72.5321 15.5434 72.5321 15.1914V14.6634H76.9388ZM77.9181 19.0194V18.3594H74.4906C73.931 18.3594 73.6512 18.6234 73.6512 19.1514C73.6512 19.6794 73.931 19.9434 74.4906 19.9434H76.4492C77.1021 19.9434 77.5917 19.6354 77.9181 19.0194Z" fill="#646464"/>
<path d="M0 21.0006H4.37709L11.1282 13.6506H6.75111L0 21.0006Z" fill="#646464"/>
<path d="M23.2181 14.6087L29.6904 6.26087C30.3003 5.41304 30.7748 4.69565 30.7748 3.68478C30.7748 1.66304 29.0804 0 26.9795 0H20.575L14.4417 7.92391H18.4402L23.6926 1.1413H25.624C26.7424 1.20652 27.4878 2.08696 27.4878 3.19565C27.4878 3.32609 27.4878 3.45652 27.4539 3.58696C27.3861 3.88043 27.2505 4.1413 27.0473 4.36956L18.3385 15.587L9.56203 4.46739H5.56348L14.4417 15.75H18.2369H18.4741H32.5029L33.384 14.6413H23.2181V14.6087Z" fill="#646464"/>
</svg>
