<svg width="24" height="24" viewBox="0 0 24 24" fill="none" xmlns="http://www.w3.org/2000/svg">
<path d="M8.39961 13.2C8.71787 13.2 9.02309 13.0736 9.24814 12.8485C9.47318 12.6235 9.59961 12.3183 9.59961 12C9.59961 11.6817 9.47318 11.3765 9.24814 11.1515C9.02309 10.9264 8.71787 10.8 8.39961 10.8C8.08135 10.8 7.77612 10.9264 7.55108 11.1515C7.32604 11.3765 7.19961 11.6817 7.19961 12C7.19961 12.3183 7.32604 12.6235 7.55108 12.8485C7.77612 13.0736 8.08135 13.2 8.39961 13.2ZM9.59961 15.6C9.59961 15.9183 9.47318 16.2235 9.24814 16.4485C9.02309 16.6736 8.71787 16.8 8.39961 16.8C8.08135 16.8 7.77612 16.6736 7.55108 16.4485C7.32604 16.2235 7.19961 15.9183 7.19961 15.6C7.19961 15.2817 7.32604 14.9765 7.55108 14.7515C7.77612 14.5264 8.08135 14.4 8.39961 14.4C8.71787 14.4 9.02309 14.5264 9.24814 14.7515C9.47318 14.9765 9.59961 15.2817 9.59961 15.6ZM11.9996 13.2C12.3179 13.2 12.6231 13.0736 12.8481 12.8485C13.0732 12.6235 13.1996 12.3183 13.1996 12C13.1996 11.6817 13.0732 11.3765 12.8481 11.1515C12.6231 10.9264 12.3179 10.8 11.9996 10.8C11.6813 10.8 11.3761 10.9264 11.1511 11.1515C10.926 11.3765 10.7996 11.6817 10.7996 12C10.7996 12.3183 10.926 12.6235 11.1511 12.8485C11.3761 13.0736 11.6813 13.2 11.9996 13.2ZM13.1996 15.6C13.1996 15.9183 13.0732 16.2235 12.8481 16.4485C12.6231 16.6736 12.3179 16.8 11.9996 16.8C11.6813 16.8 11.3761 16.6736 11.1511 16.4485C10.926 16.2235 10.7996 15.9183 10.7996 15.6C10.7996 15.2817 10.926 14.9765 11.1511 14.7515C11.3761 14.5264 11.6813 14.4 11.9996 14.4C12.3179 14.4 12.6231 14.5264 12.8481 14.7515C13.0732 14.9765 13.1996 15.2817 13.1996 15.6ZM15.5996 13.2C15.9179 13.2 16.2231 13.0736 16.4481 12.8485C16.6732 12.6235 16.7996 12.3183 16.7996 12C16.7996 11.6817 16.6732 11.3765 16.4481 11.1515C16.2231 10.9264 15.9179 10.8 15.5996 10.8C15.2813 10.8 14.9761 10.9264 14.7511 11.1515C14.526 11.3765 14.3996 11.6817 14.3996 12C14.3996 12.3183 14.526 12.6235 14.7511 12.8485C14.9761 13.0736 15.2813 13.2 15.5996 13.2ZM20.3996 6.60001C20.3996 5.80436 20.0835 5.04129 19.5209 4.47869C18.9583 3.91608 18.1953 3.60001 17.3996 3.60001H6.59961C5.80396 3.60001 5.0409 3.91608 4.47829 4.47869C3.91568 5.04129 3.59961 5.80436 3.59961 6.60001V17.4C3.59961 18.1957 3.91568 18.9587 4.47829 19.5213C5.0409 20.0839 5.80396 20.4 6.59961 20.4H17.3996C18.1953 20.4 18.9583 20.0839 19.5209 19.5213C20.0835 18.9587 20.3996 18.1957 20.3996 17.4V6.60001ZM4.79961 8.40001H19.1996V17.4C19.1996 17.8774 19.01 18.3352 18.6724 18.6728C18.3348 19.0104 17.877 19.2 17.3996 19.2H6.59961C6.12222 19.2 5.66438 19.0104 5.32682 18.6728C4.98925 18.3352 4.79961 17.8774 4.79961 17.4V8.40001ZM6.59961 4.80001H17.3996C17.877 4.80001 18.3348 4.98965 18.6724 5.32721C19.01 5.66478 19.1996 6.12262 19.1996 6.60001V7.20001H4.79961V6.60001C4.79961 6.12262 4.98925 5.66478 5.32682 5.32721C5.66438 4.98965 6.12222 4.80001 6.59961 4.80001Z" fill="#00CB62"/>
</svg>
