<svg xmlns="http://www.w3.org/2000/svg">
  <symbol id="closeModal" xmlns="http://www.w3.org/2000/svg" width="10" height="10" viewBox="0 0 10 10" fill="none">
    <path d="M4.81657 4.81667L0.649902 0.650002M4.81657 4.81667L8.98324 8.98333M4.81657 4.81667L8.98324 0.650002M4.81657 4.81667L0.649902 8.98333" stroke="currentColor" stroke-width="1.3" stroke-linecap="round" stroke-linejoin="round"/>
  </symbol>

  <symbol id="search" xmlns="http://www.w3.org/2000/svg" width="15" height="15" viewBox="0 0 15 15" fill="none">
    <path d="M10.0964 10.0963C10.6129 9.57974 11.0227 8.9665 11.3023 8.29159C11.5818 7.61668 11.7257 6.89332 11.7257 6.1628C11.7257 5.43228 11.5818 4.70892 11.3023 4.03401C11.0227 3.3591 10.6129 2.74586 10.0964 2.2293C9.57984 1.71275 8.9666 1.303 8.29169 1.02344C7.61678 0.743885 6.89342 0.599998 6.1629 0.599998C5.43238 0.599998 4.70902 0.743884 4.03411 1.02344C3.3592 1.303 2.74596 1.71275 2.2294 2.2293C1.18618 3.27253 0.600098 4.68745 0.600098 6.1628C0.600098 7.63815 1.18618 9.05307 2.2294 10.0963C3.27263 11.1395 4.68755 11.7256 6.1629 11.7256C7.63824 11.7256 9.05316 11.1395 10.0964 10.0963ZM10.0964 10.0963L13.6001 13.6" stroke="currentColor" stroke-width="1.2" stroke-linecap="round" stroke-linejoin="round"/>
  </symbol>

  <symbol id="burger" xmlns="http://www.w3.org/2000/svg" width="15" height="10" viewBox="0 0 15 10" fill="none">
    <path d="M0.600098 0.599998H13.7251M0.600098 4.6625H13.7251M0.600098 8.725H13.7251" stroke="currentColor" stroke-width="1.2" stroke-miterlimit="10" stroke-linecap="round"/>
  </symbol>

  <symbol id="arrDownload" xmlns="http://www.w3.org/2000/svg" width="12" height="14" viewBox="0 0 12 14" fill="none">
    <path d="M6.69111 0.800049C6.69111 0.358221 6.33294 4.87969e-05 5.89111 4.88162e-05C5.44929 4.88355e-05 5.09111 0.358221 5.09111 0.800049L5.89111 0.800049L6.69111 0.800049ZM5.32543 13.3657C5.63785 13.6782 6.14438 13.6782 6.4568 13.3657L11.548 8.27457C11.8604 7.96215 11.8604 7.45561 11.548 7.14319C11.2355 6.83078 10.729 6.83078 10.4166 7.14319L5.89111 11.6687L1.36563 7.14319C1.05321 6.83078 0.546679 6.83078 0.234259 7.14319C-0.07816 7.45561 -0.07816 7.96215 0.234259 8.27457L5.32543 13.3657ZM5.89111 0.800049L5.09111 0.800049L5.09111 12.8L5.89111 12.8L6.69111 12.8L6.69111 0.800049L5.89111 0.800049Z" fill="currentColor"/>
  </symbol>

  <symbol id="arrSwiperPrev" xmlns="http://www.w3.org/2000/svg" width="18" height="11" viewBox="0 0 18 11" fill="none">
    <path d="M16.7 5.85479C17.0866 5.85479 17.4 5.54138 17.4 5.15479C17.4 4.76819 17.0866 4.45479 16.7 4.45479L16.7 5.15479L16.7 5.85479ZM0.204975 4.65981C-0.0683918 4.93318 -0.0683918 5.37639 0.204975 5.64976L4.65975 10.1045C4.93312 10.3779 5.37633 10.3779 5.6497 10.1045C5.92306 9.83116 5.92306 9.38795 5.6497 9.11458L1.6899 5.15478L5.6497 1.19499C5.92307 0.921619 5.92307 0.478404 5.6497 0.205037C5.37633 -0.0683303 4.93312 -0.0683304 4.65975 0.205037L0.204975 4.65981ZM16.7 5.15479L16.7 4.45479L0.699951 4.45478L0.699951 5.15478L0.699951 5.85478L16.7 5.85479L16.7 5.15479Z" fill="currentColor"/>
  </symbol>

  <symbol id="arrSwiperNext" xmlns="http://www.w3.org/2000/svg" width="18" height="11" viewBox="0 0 18 11" fill="none">
    <path d="M0.699951 4.45479C0.313352 4.45479 -4.87824e-05 4.76819 -4.88162e-05 5.15479C-4.885e-05 5.54138 0.313352 5.85479 0.699951 5.85479L0.699951 5.15479L0.699951 4.45479ZM17.1949 5.64976C17.4683 5.37639 17.4683 4.93318 17.1949 4.65981L12.7402 0.205039C12.4668 -0.0683283 12.0236 -0.0683283 11.7502 0.205039C11.4768 0.478406 11.4768 0.921621 11.7502 1.19499L15.71 5.15479L11.7502 9.11458C11.4768 9.38795 11.4768 9.83117 11.7502 10.1045C12.0236 10.3779 12.4668 10.3779 12.7402 10.1045L17.1949 5.64976ZM0.699951 5.15479L0.699951 5.85479L16.7 5.85479L16.7 5.15479L16.7 4.45479L0.699951 4.45479L0.699951 5.15479Z" fill="currentColor"/>
  </symbol>

  <symbol id="tabPlus" xmlns="http://www.w3.org/2000/svg" width="16" height="16" viewBox="0 0 16 16" fill="none">
    <path d="M7.7207 7.72109V0.650024M7.7207 7.72109V14.7922M7.7207 7.72109H14.7918M7.7207 7.72109H0.649635" stroke="white" stroke-width="1.3" stroke-linecap="round" stroke-linejoin="round"/>
  </symbol>

  <symbol id="tabClose" xmlns="http://www.w3.org/2000/svg" width="12" height="12" viewBox="0 0 12 12" fill="none">
    <path d="M5.65039 5.64999L10.6504 0.649994M5.65039 5.64999L0.65039 10.65M5.65039 5.64999L10.6504 10.65M5.65039 5.64999L0.650391 0.649993" stroke="white" stroke-width="1.3" stroke-linecap="round" stroke-linejoin="round"/>
  </symbol>

  <symbol id="videoPlay" xmlns="http://www.w3.org/2000/svg" width="72" height="72" viewBox="0 0 72 72" fill="none">
    <path d="M66 36C66 52.5685 52.5685 66 36 66C19.4315 66 6 52.5685 6 36C6 19.4315 19.4315 6 36 6C52.5685 6 66 19.4315 66 36Z" fill="white"/>
    <path d="M31.9507 47.2506L46.5757 37.8756C47.2757 37.4256 47.6257 36.8006 47.6257 36.0006C47.6257 35.2006 47.2757 34.5756 46.5757 34.1256L31.9507 24.7506C31.2007 24.2506 30.4377 24.2126 29.6617 24.6366C28.8857 25.0606 28.4987 25.7236 28.5007 26.6256V45.3756C28.5007 46.2756 28.8887 46.9386 29.6647 47.3646C30.4407 47.7906 31.2027 47.7526 31.9507 47.2506ZM36 66C31.85 66 27.9507 65.2126 24.3007 63.6366C20.6507 62.0606 17.4757 59.9236 14.7757 57.2256C12.0757 54.5276 9.93874 51.3526 8.36474 47.7006C6.79074 44.0486 6.002 40.148 6 36C5.998 31.852 6.78674 27.9526 8.36474 24.3006C9.94274 20.6486 12.0797 17.4736 14.7757 14.7756C17.4717 12.0776 20.6467 9.9406 24.3007 8.3646C27.9547 6.7886 31.854 6 36 6C40.146 6 44.0467 6.7886 47.7007 8.3646C51.3547 9.9406 54.5297 12.0776 57.2257 14.7756C59.9217 17.4736 62.0597 20.6486 63.6397 24.3006C65.2197 27.9526 66.006 31.852 66 36C65.994 40.148 65.2067 44.0486 63.6367 47.7006C62.0667 51.3526 59.9297 54.5276 57.2257 57.2256C54.5217 59.9236 51.3467 62.0616 47.7007 63.6396C44.0547 65.2176 40.154 66.004 36 66Z" fill="currentColor"/>
  </symbol>

  <symbol id="cardAllLink" xmlns="http://www.w3.org/2000/svg" width="18" height="11" viewBox="0 0 18 11" fill="none">
    <path d="M0.699219 4.45479C0.312619 4.45479 -0.000781204 4.76819 -0.000781238 5.15479C-0.000781272 5.54138 0.312619 5.85479 0.699219 5.85479L0.699219 5.15479L0.699219 4.45479ZM17.1942 5.64976C17.4676 5.37639 17.4676 4.93318 17.1942 4.65981L12.7394 0.205039C12.4661 -0.0683283 12.0228 -0.0683283 11.7495 0.205039C11.4761 0.478406 11.4761 0.921621 11.7495 1.19499L15.7093 5.15479L11.7495 9.11458C11.4761 9.38795 11.4761 9.83117 11.7495 10.1045C12.0228 10.3779 12.4661 10.3779 12.7394 10.1045L17.1942 5.64976ZM0.699219 5.15479L0.699219 5.85479L16.6992 5.85479L16.6992 5.15479L16.6992 4.45479L0.699219 4.45479L0.699219 5.15479Z" fill="currentColor"/>
  </symbol>

  <symbol id="viewerClose" xmlns="http://www.w3.org/2000/svg" width="14" height="14" viewBox="0 0 14 14" fill="none">
    <path d="M6.65039 6.65L0.650391 0.650002M6.65039 6.65L12.6504 12.65M6.65039 6.65L12.6504 0.650002M6.65039 6.65L0.650391 12.65" stroke="currentColor" stroke-width="1.3" stroke-linecap="round" stroke-linejoin="round"/>
  </symbol>

  <symbol id="showAll" xmlns="http://www.w3.org/2000/svg" width="24" height="24" viewBox="0 0 24 24" fill="none">
    <path d="M18 12H12M12 12H6M12 12V6M12 12V18" stroke="white" stroke-width="1.2" stroke-linecap="round" stroke-linejoin="round"/>
  </symbol>

  <symbol id="requisites" xmlns="http://www.w3.org/2000/svg" width="24" height="24" viewBox="0 0 24 24" fill="none">
    <path d="M3.5 8H21.5C21.7652 8 22.0196 7.89464 22.2071 7.70711C22.3946 7.51957 22.5 7.26522 22.5 7C22.5 6.73478 22.3946 6.48043 22.2071 6.29289C22.0196 6.10536 21.7652 6 21.5 6H3.5C3.23478 6 2.98043 6.10536 2.79289 6.29289C2.60536 6.48043 2.5 6.73478 2.5 7C2.5 7.26522 2.60536 7.51957 2.79289 7.70711C2.98043 7.89464 3.23478 8 3.5 8Z" fill="currentColor"/>
    <path d="M3.5 14H21.5C21.7652 14 22.0196 13.8946 22.2071 13.7071C22.3946 13.5196 22.5 13.2652 22.5 13C22.5 12.7348 22.3946 12.4804 22.2071 12.2929C22.0196 12.1054 21.7652 12 21.5 12H3.5C3.23478 12 2.98043 12.1054 2.79289 12.2929C2.60536 12.4804 2.5 12.7348 2.5 13C2.5 13.2652 2.60536 13.5196 2.79289 13.7071C2.98043 13.8946 3.23478 14 3.5 14Z" fill="currentColor"/>
    <path d="M3.41667 20H12.5833C12.8264 20 13.0596 19.8946 13.2315 19.7071C13.4034 19.5196 13.5 19.2652 13.5 19C13.5 18.7348 13.4034 18.4804 13.2315 18.2929C13.0596 18.1054 12.8264 18 12.5833 18H3.41667C3.17355 18 2.94039 18.1054 2.76849 18.2929C2.59658 18.4804 2.5 18.7348 2.5 19C2.5 19.2652 2.59658 19.5196 2.76849 19.7071C2.94039 19.8946 3.17355 20 3.41667 20Z" fill="currentColor"/>
  </symbol>

  <symbol id="linkDownload" xmlns="http://www.w3.org/2000/svg" width="22" height="22" viewBox="0 0 22 22" fill="none">
    <path d="M11.8 6C11.8 5.55817 11.4418 5.2 11 5.2C10.5582 5.2 10.2 5.55817 10.2 6L11 6L11.8 6ZM10.4343 18.5657C10.7467 18.8781 11.2533 18.8781 11.5657 18.5657L16.6569 13.4745C16.9693 13.1621 16.9693 12.6556 16.6569 12.3431C16.3444 12.0307 15.8379 12.0307 15.5255 12.3431L11 16.8686L6.47452 12.3431C6.1621 12.0307 5.65557 12.0307 5.34315 12.3431C5.03073 12.6556 5.03073 13.1621 5.34315 13.4745L10.4343 18.5657ZM11 6L10.2 6L10.2 18L11 18L11.8 18L11.8 6L11 6Z" fill="currentColor"/>
  </symbol>

  <symbol id="btnSearch" xmlns="http://www.w3.org/2000/svg" width="28" height="28" viewBox="0 0 28 28" fill="none">
    <path d="M18.6097 16.6097C19.4044 15.815 20.0348 14.8715 20.4649 13.8332C20.8949 12.7949 21.1163 11.682 21.1163 10.5582C21.1163 9.43428 20.8949 8.32141 20.4649 7.28309C20.0348 6.24477 19.4044 5.30132 18.6097 4.50663C17.815 3.71193 16.8715 3.08154 15.8332 2.65145C14.7949 2.22136 13.682 2 12.5582 2C11.4343 2 10.3214 2.22136 9.28309 2.65145C8.24477 3.08154 7.30132 3.71193 6.50663 4.50663C4.90166 6.11159 4 8.28839 4 10.5582C4 12.8279 4.90166 15.0047 6.50663 16.6097C8.11159 18.2146 10.2884 19.1163 12.5582 19.1163C14.8279 19.1163 17.0047 18.2146 18.6097 16.6097ZM18.6097 16.6097L24 22" stroke="currentColor" stroke-width="1.3" stroke-linecap="round" stroke-linejoin="round"/>
  </symbol>

  <symbol id="inputFile" xmlns="http://www.w3.org/2000/svg" width="23" height="23" viewBox="0 0 23 23" fill="none">
    <path d="M5.75 19.1667H17.25M11.5 15.1666C11.5 11.782 11.5 9.88447 11.5 6.49994M11.5 6.49994C12.8099 7.80982 13.5443 8.54422 14.8542 9.85411M11.5 6.49994C10.1901 7.80982 9.45572 8.54422 8.14583 9.85411" stroke="currentColor" stroke-width="1.3" stroke-linecap="round" stroke-linejoin="round"/>
  </symbol>
</svg>