<svg width="201" height="218" viewBox="0 0 201 218" fill="none" xmlns="http://www.w3.org/2000/svg">
<g clip-path="url(#clip0_2002_376)">
<path d="M48.8507 217.002C113.55 281.897 218.45 281.897 283.149 217.002C347.849 152.108 347.849 46.8927 283.149 -18.002C218.45 -82.8966 113.55 -82.8966 48.8507 -18.002C-15.849 46.8927 -15.849 152.108 48.8507 217.002Z" stroke="#00CB62" stroke-width="0.64" stroke-miterlimit="10"/>
<path d="M60.9127 204.903C124.857 269.04 223.742 273.842 281.78 215.63C339.818 157.417 335.03 58.2338 271.086 -5.9029C207.142 -70.0396 108.256 -74.842 50.2182 -16.6296C-7.81948 41.5829 -3.03139 140.766 60.9127 204.903Z" stroke="#00CB62" stroke-width="1.13" stroke-miterlimit="10"/>
<path d="M72.9745 192.804C136.163 256.183 229.035 265.788 280.411 214.257C331.786 162.727 322.21 69.575 259.022 6.19633C195.834 -57.1823 102.961 -66.7873 51.5856 -15.257C0.210036 36.2734 9.78619 129.426 72.9745 192.804Z" stroke="#00CB62" stroke-width="1.6" stroke-miterlimit="10"/>
<path d="M85.0431 180.698C147.476 243.319 234.332 257.729 279.041 212.885C323.751 168.041 309.383 80.9235 246.951 18.3027C184.518 -44.318 97.662 -58.7287 52.9525 -13.8845C8.24296 30.9597 22.6104 118.077 85.0431 180.698Z" stroke="#00CB62" stroke-width="2.1" stroke-miterlimit="10"/>
<path d="M97.1128 168.599C158.79 230.461 239.632 249.675 277.68 211.513C315.727 173.351 296.572 92.2644 234.895 30.4017C173.218 -31.4611 92.3752 -50.6743 54.3277 -12.5122C16.2803 25.6498 35.4358 106.736 97.1128 168.599Z" stroke="#00CB62" stroke-width="2.4" stroke-miterlimit="10"/>
<path d="M109.175 156.5C170.096 217.604 244.925 241.62 276.311 210.14C307.696 178.66 283.752 103.605 222.831 42.5007C161.91 -18.604 87.0806 -42.6197 55.6952 -11.1398C24.3098 20.3401 48.2534 95.3948 109.175 156.5Z" stroke="#00CB62" stroke-width="2.8" stroke-miterlimit="10"/>
<path d="M121.236 144.4C181.406 204.751 250.225 233.573 274.948 208.775C299.671 183.977 270.936 114.951 210.767 54.5999C150.597 -5.7509 81.7781 -34.5723 57.0548 -9.77456C32.3316 15.0232 61.0664 84.0497 121.236 144.4Z" stroke="#00CB62" stroke-width="3" stroke-miterlimit="10"/>
<path d="M133.304 132.294C192.718 191.887 255.521 225.514 273.578 207.403C291.635 189.291 258.109 126.299 198.695 66.7062C139.282 7.1134 76.4789 -26.5137 58.4217 -8.40212C40.3645 9.7095 73.8906 72.7014 133.304 132.294Z" stroke="#00CB62" stroke-width="3.2" stroke-miterlimit="10"/>
<path d="M145.366 120.195C204.024 179.03 260.814 217.459 272.209 206.03C283.604 194.601 245.29 137.64 186.632 78.8053C127.974 19.9704 71.1843 -18.4592 59.7891 -7.02972C48.394 4.39974 86.7082 61.3602 145.366 120.195Z" stroke="#00CB62" stroke-width="3.5" stroke-miterlimit="10"/>
<path d="M158.261 107.265C216.163 165.342 266.391 209.124 270.448 205.055C274.504 200.986 230.853 150.607 172.951 92.5305C115.049 34.4537 64.8209 -9.32849 60.7643 -5.25971C56.7078 -1.19093 100.358 49.1881 158.261 107.265Z" stroke="#00CB62" stroke-width="4" stroke-miterlimit="10"/>
</g>
<defs>
<clipPath id="clip0_2002_376">
<rect width="332" height="333" fill="white" transform="translate(0 -67)"/>
</clipPath>
</defs>
</svg>
