<svg width="372" height="542" viewBox="0 0 372 542" fill="none" xmlns="http://www.w3.org/2000/svg">
<g clip-path="url(#clip0_354_463)">
<path d="M-90.2497 462.25C15.3746 567.874 186.625 567.874 292.25 462.25C397.874 356.626 397.874 185.375 292.25 79.7506C186.625 -25.8737 15.3746 -25.8737 -90.2497 79.7506C-195.874 185.375 -195.874 356.626 -90.2497 462.25Z" stroke="#232323" stroke-width="0.64" stroke-miterlimit="10"/>
<path d="M-70.5568 442.557C33.8338 546.948 195.268 554.764 290.016 460.016C384.764 365.268 376.947 203.834 272.557 99.4434C168.166 -4.94721 6.73238 -12.7639 -88.0159 81.9844C-182.764 176.733 -174.947 338.167 -70.5568 442.557Z" stroke="#232323" stroke-width="1.13" stroke-miterlimit="10"/>
<path d="M-50.866 422.865C52.2909 526.021 203.908 541.655 287.78 457.783C371.652 373.91 356.019 222.293 252.862 119.136C149.705 15.9796 -1.9118 0.346248 -85.784 84.2185C-169.656 168.091 -154.023 319.708 -50.866 422.865Z" stroke="#232323" stroke-width="1.6" stroke-miterlimit="10"/>
<path d="M-31.1574 403.16C70.7658 505.083 212.561 528.538 285.55 455.549C358.54 382.559 335.085 240.764 233.162 138.841C131.238 36.9178 -10.5565 13.4626 -83.5462 86.4522C-156.536 159.442 -133.081 301.237 -31.1574 403.16Z" stroke="#232323" stroke-width="2.1" stroke-miterlimit="10"/>
<path d="M-11.4674 383.467C89.222 484.156 221.2 515.428 283.314 453.315C345.427 391.201 314.155 259.223 213.466 158.534C112.776 57.8441 -19.2017 26.5722 -81.3153 88.6858C-143.429 150.799 -112.157 282.777 -11.4674 383.467Z" stroke="#232323" stroke-width="2.4" stroke-miterlimit="10"/>
<path d="M8.22546 363.774C107.681 463.23 229.842 502.318 281.08 451.081C332.317 399.843 293.229 277.682 193.773 178.226C94.3172 78.7707 -27.8439 39.6821 -79.0814 90.9196C-130.319 142.157 -91.2303 264.318 8.22546 363.774Z" stroke="#232323" stroke-width="2.8" stroke-miterlimit="10"/>
<path d="M27.9213 344.082C126.15 442.31 238.499 489.221 278.861 448.859C319.222 408.498 272.312 296.148 174.083 197.92C75.8546 99.691 -36.4949 52.7805 -76.8564 93.142C-117.218 133.504 -70.3073 245.853 27.9213 344.082Z" stroke="#232323" stroke-width="3" stroke-miterlimit="10"/>
<path d="M47.624 324.377C144.619 421.372 247.146 476.104 276.625 446.625C306.104 417.146 251.372 314.619 154.377 217.624C57.3819 120.629 -45.1455 65.8965 -74.6244 95.3755C-104.103 124.854 -49.3709 227.382 47.624 324.377Z" stroke="#232323" stroke-width="3.2" stroke-miterlimit="10"/>
<path d="M67.3158 304.684C163.077 400.445 255.787 462.994 274.39 444.391C292.993 425.788 230.444 333.078 134.683 237.317C38.9218 141.556 -53.7887 79.0064 -72.3916 97.6094C-90.9945 116.212 -28.4453 208.923 67.3158 304.684Z" stroke="#232323" stroke-width="3.5" stroke-miterlimit="10"/>
<path d="M88.3636 283.638C182.891 378.166 264.889 449.427 271.512 442.804C278.134 436.182 206.873 354.184 112.346 259.656C17.8181 165.129 -64.1801 93.8678 -70.8026 100.49C-77.425 107.113 -6.16391 189.111 88.3636 283.638Z" stroke="#232323" stroke-width="4" stroke-miterlimit="10"/>
</g>
<defs>
<clipPath id="clip0_354_463">
<rect width="542" height="542" fill="white" transform="translate(-170)"/>
</clipPath>
</defs>
</svg>
