<svg width="494" height="614" viewBox="0 0 494 614" fill="none" xmlns="http://www.w3.org/2000/svg">
<g clip-path="url(#clip0_241_5)">
<path d="M-29.6556 523.656C90 643.312 284 643.312 403.656 523.656C523.311 404 523.311 210 403.656 90.3448C284 -29.3108 90 -29.3108 -29.6556 90.3448C-149.311 210 -149.311 404 -29.6556 523.656Z" stroke="#232323" stroke-width="0.64" stroke-miterlimit="10"/>
<path d="M-7.34671 501.347C110.911 619.605 293.79 628.46 401.125 521.125C508.46 413.791 499.605 230.912 381.347 112.654C263.089 -5.60438 80.2097 -14.4594 -27.125 92.8753C-134.46 200.21 -125.605 383.089 -7.34671 501.347Z" stroke="#232323" stroke-width="1.13" stroke-miterlimit="10"/>
<path d="M14.9601 479.038C131.82 595.899 303.578 613.609 398.592 518.595C493.606 423.581 475.896 251.823 359.036 134.963C242.175 18.1023 70.4174 0.392227 -24.5965 95.4061C-119.61 190.42 -101.9 362.178 14.9601 479.038Z" stroke="#232323" stroke-width="1.6" stroke-miterlimit="10"/>
<path d="M37.2868 456.716C152.75 572.179 313.381 598.75 396.066 516.064C478.752 433.379 452.181 272.748 336.718 157.285C221.255 41.8221 60.6243 15.251 -22.0614 97.9367C-104.747 180.622 -78.176 341.253 37.2868 456.716Z" stroke="#232323" stroke-width="2.1" stroke-miterlimit="10"/>
<path d="M59.5927 434.407C173.658 548.472 323.168 583.899 393.533 513.534C463.898 443.169 428.472 293.659 314.406 179.594C200.341 65.5283 50.8311 30.1021 -19.5338 100.467C-89.8987 170.832 -54.4725 320.342 59.5927 434.407Z" stroke="#232323" stroke-width="2.4" stroke-miterlimit="10"/>
<path d="M81.9015 412.098C194.569 524.766 332.958 569.047 391.002 511.003C449.046 452.959 404.765 314.57 292.098 201.902C179.43 89.2347 41.0408 44.9535 -17.0033 102.997C-75.0473 161.042 -30.7661 299.431 81.9015 412.098Z" stroke="#232323" stroke-width="2.8" stroke-miterlimit="10"/>
<path d="M104.213 389.79C215.49 501.067 342.764 554.209 388.488 508.486C434.211 462.763 381.069 335.489 269.791 224.212C158.514 112.934 31.2397 59.792 -14.4835 105.515C-60.2067 151.238 -7.06445 278.512 104.213 389.79Z" stroke="#232323" stroke-width="3" stroke-miterlimit="10"/>
<path d="M126.533 367.467C236.413 477.347 352.56 539.35 385.955 505.955C419.35 472.56 357.347 356.413 247.467 246.533C137.587 136.654 21.4397 74.6503 -11.9553 108.045C-45.3503 141.44 16.653 257.588 126.533 367.467Z" stroke="#232323" stroke-width="3.2" stroke-miterlimit="10"/>
<path d="M148.842 345.158C257.324 453.641 362.35 524.499 383.424 503.425C404.498 482.351 333.64 377.324 225.158 268.842C116.676 160.36 11.6494 89.5017 -9.42474 110.576C-30.4989 131.65 40.3594 236.676 148.842 345.158Z" stroke="#232323" stroke-width="3.5" stroke-miterlimit="10"/>
<path d="M172.685 321.317C279.77 428.402 372.661 509.129 380.163 501.627C387.665 494.125 306.937 401.234 199.853 294.149C92.7682 187.065 -0.122757 106.337 -7.62495 113.84C-15.1271 121.342 65.6004 214.233 172.685 321.317Z" stroke="#232323" stroke-width="4" stroke-miterlimit="10"/>
</g>
<defs>
<clipPath id="clip0_241_5">
<rect width="614" height="614" fill="white" transform="translate(-120)"/>
</clipPath>
</defs>
</svg>
