<svg width="360" height="542" viewBox="0 0 360 542" fill="none" xmlns="http://www.w3.org/2000/svg">
<g clip-path="url(#clip0_354_822)">
<path d="M-11.2497 462.25C94.3746 567.874 265.625 567.874 371.25 462.25C476.874 356.626 476.874 185.375 371.25 79.7506C265.625 -25.8737 94.3746 -25.8737 -11.2497 79.7506C-116.874 185.375 -116.874 356.626 -11.2497 462.25Z" stroke="#232323" stroke-width="0.64" stroke-miterlimit="10"/>
<path d="M8.44321 442.557C112.834 546.948 274.268 554.764 369.016 460.016C463.764 365.268 455.947 203.834 351.557 99.4434C247.166 -4.94721 85.7324 -12.7639 -9.01584 81.9844C-103.764 176.733 -95.9474 338.166 8.44321 442.557Z" stroke="#232323" stroke-width="1.13" stroke-miterlimit="10"/>
<path d="M28.134 422.865C131.291 526.021 282.908 541.655 366.78 457.783C450.652 373.91 435.019 222.293 331.862 119.136C228.705 15.9796 77.0882 0.346248 -6.78402 84.2185C-90.6562 168.091 -75.0229 319.708 28.134 422.865Z" stroke="#232323" stroke-width="1.6" stroke-miterlimit="10"/>
<path d="M47.8426 403.16C149.766 505.083 291.561 528.538 364.55 455.549C437.54 382.559 414.085 240.764 312.162 138.841C210.238 36.9179 68.4435 13.4627 -4.54617 86.4523C-77.5358 159.442 -54.0806 301.237 47.8426 403.16Z" stroke="#232323" stroke-width="2.1" stroke-miterlimit="10"/>
<path d="M67.5326 383.467C168.222 484.156 300.2 515.428 362.314 453.315C424.427 391.201 393.155 259.223 292.466 158.534C191.776 57.8441 59.7983 26.5722 -2.31527 88.6858C-64.4289 150.799 -33.1569 282.777 67.5326 383.467Z" stroke="#232323" stroke-width="2.4" stroke-miterlimit="10"/>
<path d="M87.2254 363.774C186.681 463.23 308.842 502.318 360.08 451.081C411.317 399.843 372.229 277.682 272.773 178.227C173.317 78.7707 51.1561 39.6821 -0.081415 90.9197C-51.319 142.157 -12.2303 264.318 87.2254 363.774Z" stroke="#232323" stroke-width="2.8" stroke-miterlimit="10"/>
<path d="M106.921 344.082C205.15 442.31 317.499 489.221 357.861 448.859C398.222 408.498 351.312 296.148 253.083 197.92C154.855 99.691 42.5051 52.7805 2.14364 93.142C-38.2179 133.504 8.69269 245.853 106.921 344.082Z" stroke="#232323" stroke-width="3" stroke-miterlimit="10"/>
<path d="M126.624 324.377C223.619 421.372 326.146 476.104 355.625 446.625C385.104 417.146 330.372 314.619 233.377 217.624C136.382 120.629 33.8545 65.8966 4.37556 95.3755C-25.1034 124.855 29.6291 227.382 126.624 324.377Z" stroke="#232323" stroke-width="3.2" stroke-miterlimit="10"/>
<path d="M146.316 304.684C242.077 400.445 334.787 462.994 353.39 444.391C371.993 425.788 309.444 333.078 213.683 237.317C117.922 141.556 25.2113 79.0064 6.60842 97.6094C-11.9945 116.212 50.5546 208.923 146.316 304.684Z" stroke="#232323" stroke-width="3.5" stroke-miterlimit="10"/>
<path d="M167.364 283.638C261.891 378.166 343.889 449.427 350.512 442.804C357.134 436.182 285.873 354.184 191.346 259.656C96.8181 165.129 14.8199 93.8677 8.19744 100.49C1.57498 107.113 72.8361 189.111 167.364 283.638Z" stroke="#232323" stroke-width="4" stroke-miterlimit="10"/>
</g>
<defs>
<clipPath id="clip0_354_822">
<rect width="542" height="542" fill="white" transform="translate(-91)"/>
</clipPath>
</defs>
</svg>
