<svg width="500" height="246" viewBox="0 0 500 246" fill="none" xmlns="http://www.w3.org/2000/svg">
<g clip-path="url(#clip0_263_328)">
<path d="M-24.2208 977.052C-24.2208 977.052 316.695 344.415 429.973 133.715C541.634 -73.7599 726.117 -25.9225 767.652 46.64M-32.8515 965.227C-32.8515 965.227 303.749 341.19 414.87 134.253C529.227 -78.5974 716.407 -21.085 757.943 53.6275M-41.4823 953.402C-41.4823 953.402 290.802 337.427 400.305 134.253C516.821 -82.8975 706.158 -16.2475 747.694 61.1525M-49.5736 941.577C-49.5736 941.577 277.856 334.202 385.201 134.79C504.414 -87.735 695.909 -11.41 737.445 68.6775M-58.2043 930.29C-58.2043 930.29 264.91 330.44 370.098 134.79C492.007 -92.5724 686.199 -6.57246 727.735 75.665M-66.8352 918.465C-66.8352 918.465 251.964 327.215 354.994 134.79C480.14 -96.8724 675.95 -1.73497 717.486 83.19M-75.466 906.64C-75.466 906.64 239.018 323.452 340.429 135.328C467.733 -101.71 665.701 3.10254 707.776 90.715M-83.5573 894.815C-83.5573 894.815 226.072 320.227 325.325 135.328C455.326 -106.547 655.992 7.94003 697.527 97.7025M-92.188 882.99C-92.188 882.99 213.125 317.002 310.222 135.865C442.92 -110.847 645.743 12.7775 687.818 105.228M-100.819 871.165C-100.819 871.165 200.179 313.24 295.118 135.865C430.513 -115.685 635.494 17.615 677.569 112.753" stroke="#00CB62" stroke-width="0.4" stroke-miterlimit="10"/>
<path d="M-108.91 859.877C-108.91 859.877 186.694 310.015 280.554 135.865C418.106 -120.522 625.784 22.4526 667.859 119.74" stroke="#00CB62" stroke-width="0.4" stroke-miterlimit="10"/>
<path d="M-117.54 848.052C-117.54 848.052 173.749 306.252 265.451 136.402C405.701 -124.823 615.536 27.2898 657.611 127.265" stroke="#00CB62" stroke-width="0.4" stroke-miterlimit="10"/>
<path d="M-126.169 836.227C-126.169 836.227 160.804 303.027 250.348 136.402C393.295 -129.66 605.828 32.1273 647.363 134.79" stroke="#00CB62" stroke-width="0.5" stroke-miterlimit="10"/>
<path d="M-134.802 824.402C-134.802 824.402 147.856 299.265 235.243 136.94C380.887 -134.497 595.577 36.965 637.652 141.778" stroke="#00CB62" stroke-width="0.5" stroke-miterlimit="10"/>
<path d="M-142.894 812.577C-142.894 812.577 134.909 296.04 220.677 136.94C368.479 -138.798 585.327 41.8024 627.402 149.302" stroke="#00CB62" stroke-width="0.5" stroke-miterlimit="10"/>
<path d="M-151.522 800.752C-151.522 800.752 121.965 292.815 205.576 137.477C356.615 -143.635 575.62 46.64 617.695 156.827" stroke="#00CB62" stroke-width="0.5" stroke-miterlimit="10"/>
<path d="M-160.158 789.465C-160.158 789.465 109.014 289.052 190.467 137.477C344.203 -148.473 565.366 51.4773 607.441 164.352" stroke="#00CB62" stroke-width="0.6" stroke-miterlimit="10"/>
<path d="M-168.786 777.64C-168.786 777.64 96.0709 285.828 175.366 137.478C331.799 -152.772 555.12 56.315 597.734 171.34" stroke="#00CB62" stroke-width="0.6" stroke-miterlimit="10"/>
<path d="M-176.876 765.815C-176.876 765.815 83.1257 282.065 160.803 138.015C319.393 -157.61 545.411 61.1524 587.486 178.865" stroke="#00CB62" stroke-width="0.6" stroke-miterlimit="10"/>
<path d="M-185.508 753.99C-185.508 753.99 70.1783 278.84 145.698 138.015C306.985 -161.91 535.161 65.9899 577.775 186.39" stroke="#00CB62" stroke-width="0.6" stroke-miterlimit="10"/>
<path d="M-194.138 742.165C-194.138 742.165 57.2331 275.077 130.595 138.552C294.579 -166.748 524.913 70.8273 567.527 193.377" stroke="#00CB62" stroke-width="0.7" stroke-miterlimit="10"/>
</g>
<defs>
<clipPath id="clip0_263_328">
<rect width="561" height="387" fill="white" transform="matrix(-1 0 0 1 561 -17)"/>
</clipPath>
</defs>
</svg>
