<svg width="328" height="256" viewBox="0 0 328 256" fill="none" xmlns="http://www.w3.org/2000/svg">
<g clip-path="url(#clip0_354_3383)">
<path d="M-43.241 730.26C-43.241 730.26 207.205 265.506 290.423 110.72C372.453 -41.6975 507.979 -6.55467 538.492 46.7519M-49.5814 721.573C-49.5814 721.573 197.695 263.137 279.328 111.115C363.338 -45.2513 500.846 -3.00091 531.359 51.8851M-55.9218 712.886C-55.9218 712.886 188.184 260.373 268.628 111.115C354.224 -48.4102 493.317 0.552862 523.83 57.4132M-61.866 704.199C-61.866 704.199 178.674 258.004 257.533 111.509C345.11 -51.964 485.787 4.10664 516.301 62.9413M-68.2064 695.907C-68.2064 695.907 169.163 255.24 246.437 111.509C335.995 -55.5177 478.655 7.6604 509.168 68.0745M-74.5468 687.22C-74.5468 687.22 159.652 252.87 235.341 111.509C327.277 -58.6766 471.125 11.2142 501.639 73.6026M-80.8872 678.533C-80.8872 678.533 150.142 250.106 224.642 111.904C318.163 -62.2304 463.596 14.7679 494.506 79.1306M-86.8314 669.846C-86.8314 669.846 140.631 247.737 213.546 111.904C309.048 -65.7842 456.463 18.3217 486.976 84.2639M-93.1718 661.159C-93.1718 661.159 131.12 245.368 202.45 112.299C299.934 -68.9431 448.934 21.8755 479.843 89.792M-99.5122 652.472C-99.5122 652.472 121.61 242.604 191.354 112.299C290.82 -72.4968 441.405 25.4292 472.314 95.32" stroke="#00CB62" stroke-width="0.4" stroke-miterlimit="10"/>
<path d="M-105.456 644.18C-105.456 644.18 111.703 240.235 180.655 112.299C281.706 -76.0507 434.272 28.9829 465.182 100.453" stroke="#00CB62" stroke-width="0.4" stroke-miterlimit="10"/>
<path d="M-111.796 635.493C-111.796 635.493 102.193 237.471 169.56 112.694C272.591 -79.2096 426.743 32.5367 457.652 105.981" stroke="#00CB62" stroke-width="0.4" stroke-miterlimit="10"/>
<path d="M-118.135 626.806C-118.135 626.806 92.6841 235.101 158.466 112.694C263.479 -82.7635 419.612 36.0904 450.125 111.509" stroke="#00CB62" stroke-width="0.5" stroke-miterlimit="10"/>
<path d="M-124.477 618.119C-124.477 618.119 83.1715 232.338 147.368 113.089C254.363 -86.3172 412.081 39.6442 442.99 116.643" stroke="#00CB62" stroke-width="0.5" stroke-miterlimit="10"/>
<path d="M-130.421 609.432C-130.421 609.432 73.661 229.968 136.669 113.089C245.248 -89.4761 404.551 43.198 435.461 122.171" stroke="#00CB62" stroke-width="0.5" stroke-miterlimit="10"/>
<path d="M-136.76 600.745C-136.76 600.745 64.1524 227.599 125.575 113.484C236.532 -93.0299 397.421 46.7517 428.33 127.699" stroke="#00CB62" stroke-width="0.5" stroke-miterlimit="10"/>
<path d="M-143.104 592.453C-143.104 592.453 54.6377 224.835 114.475 113.484C227.414 -96.5837 389.887 50.3055 420.797 133.227" stroke="#00CB62" stroke-width="0.6" stroke-miterlimit="10"/>
<path d="M-149.442 583.766C-149.442 583.766 45.1293 222.466 103.382 113.484C218.302 -99.7424 382.36 53.8594 413.666 138.36" stroke="#00CB62" stroke-width="0.6" stroke-miterlimit="10"/>
<path d="M-155.386 575.079C-155.386 575.079 35.6186 219.702 92.6823 113.878C209.187 -103.296 375.227 57.413 406.137 143.888" stroke="#00CB62" stroke-width="0.6" stroke-miterlimit="10"/>
<path d="M-161.727 566.392C-161.727 566.392 26.1082 217.333 81.5868 113.878C200.073 -106.455 367.698 60.9667 399.004 149.416" stroke="#00CB62" stroke-width="0.6" stroke-miterlimit="10"/>
<path d="M-168.067 557.705C-168.067 557.705 16.5975 214.569 70.4911 114.273C190.959 -110.009 360.169 64.5206 391.475 154.549" stroke="#00CB62" stroke-width="0.7" stroke-miterlimit="10"/>
</g>
<defs>
<clipPath id="clip0_354_3383">
<rect width="328" height="256" fill="white" transform="matrix(-1 0 0 1 328 0)"/>
</clipPath>
</defs>
</svg>
