<svg width="525" height="371" viewBox="0 0 525 371" fill="none" xmlns="http://www.w3.org/2000/svg">
<g clip-path="url(#clip0_354_2822)">
<path d="M-26.401 1057.5C-26.401 1057.5 345.19 367.935 468.661 138.276C590.369 -87.8672 791.452 -35.7253 836.725 43.3663M-35.8084 1044.61C-35.8084 1044.61 331.079 364.42 452.199 138.862C576.846 -93.14 780.868 -30.4525 826.141 50.9826M-45.2158 1031.72C-45.2158 1031.72 316.968 360.319 436.324 138.862C563.323 -97.8269 769.697 -25.1798 814.97 59.1847M-54.0352 1018.83C-54.0352 1018.83 302.857 356.804 419.861 139.448C549.8 -103.1 758.526 -19.907 803.799 67.3868M-63.4425 1006.53C-63.4425 1006.53 288.746 352.703 403.398 139.448C536.277 -108.372 747.943 -14.6342 793.216 75.003M-72.8499 993.638C-72.8499 993.638 274.635 349.187 386.935 139.448C523.342 -113.059 736.771 -9.36144 782.044 83.2051M-82.2573 980.749C-82.2573 980.749 260.524 345.086 371.06 140.034C509.819 -118.332 725.6 -4.08866 771.461 91.4072M-91.0767 967.86C-91.0767 967.86 246.413 341.571 354.597 140.034C496.296 -123.605 715.017 1.18412 760.29 99.0234M-100.484 954.971C-100.484 954.971 232.302 338.056 338.134 140.62C482.773 -128.292 703.846 6.45689 749.706 107.226M-109.891 942.082C-109.891 942.082 218.19 333.955 321.671 140.62C469.249 -133.565 692.674 11.7297 738.535 115.428" stroke="#00CB62" stroke-width="0.4" stroke-miterlimit="10"/>
<path d="M-118.71 929.779C-118.71 929.779 203.493 330.44 305.798 140.62C455.728 -138.837 682.092 17.0025 727.953 123.044" stroke="#00CB62" stroke-width="0.4" stroke-miterlimit="10"/>
<path d="M-128.116 916.89C-128.116 916.89 189.383 326.339 289.336 141.205C442.206 -143.525 670.922 22.275 716.783 131.246" stroke="#00CB62" stroke-width="0.4" stroke-miterlimit="10"/>
<path d="M-137.522 904.001C-137.522 904.001 175.273 322.823 272.875 141.205C428.684 -148.797 660.34 27.5477 705.613 139.448" stroke="#00CB62" stroke-width="0.5" stroke-miterlimit="10"/>
<path d="M-146.932 891.112C-146.932 891.112 161.159 318.723 256.409 141.792C415.158 -154.07 649.166 32.8208 695.027 147.064" stroke="#00CB62" stroke-width="0.5" stroke-miterlimit="10"/>
<path d="M-155.752 878.223C-155.752 878.223 147.048 315.207 240.533 141.791C401.635 -158.757 637.995 38.0935 683.855 155.266" stroke="#00CB62" stroke-width="0.5" stroke-miterlimit="10"/>
<path d="M-165.156 865.334C-165.156 865.334 132.94 311.692 224.074 142.377C388.703 -164.03 627.414 43.3663 673.275 163.468" stroke="#00CB62" stroke-width="0.5" stroke-miterlimit="10"/>
<path d="M-174.568 853.03C-174.568 853.03 118.824 307.591 207.606 142.377C375.175 -169.303 616.239 48.6389 662.1 171.67" stroke="#00CB62" stroke-width="0.6" stroke-miterlimit="10"/>
<path d="M-183.974 840.142C-183.974 840.142 104.714 304.076 191.145 142.377C361.653 -173.989 605.069 53.9119 651.518 179.287" stroke="#00CB62" stroke-width="0.6" stroke-miterlimit="10"/>
<path d="M-192.792 827.253C-192.792 827.253 90.6047 299.975 175.271 142.963C348.131 -179.262 594.487 59.1846 640.348 187.489" stroke="#00CB62" stroke-width="0.6" stroke-miterlimit="10"/>
<path d="M-202.2 814.364C-202.2 814.364 76.493 296.46 158.807 142.963C334.608 -183.949 583.315 64.4573 629.764 195.691" stroke="#00CB62" stroke-width="0.6" stroke-miterlimit="10"/>
<path d="M-211.606 801.474C-211.606 801.474 62.3834 292.358 142.346 143.549C321.086 -189.222 572.145 69.73 618.594 203.307" stroke="#00CB62" stroke-width="0.7" stroke-miterlimit="10"/>
</g>
<defs>
<clipPath id="clip0_354_2822">
<rect width="525" height="371" fill="white" transform="matrix(-1 0 0 1 525 0)"/>
</clipPath>
</defs>
</svg>
